<svg xmlns="http://www.w3.org/2000/svg" xmlns:xlink="http://www.w3.org/1999/xlink" width="8000" zoomAndPan="magnify" viewBox="0 0 6000 2250.000011" height="3000" preserveAspectRatio="xMidYMid meet" version="1.0"><defs><g/></defs><path fill="#5271ff" d="M 911.242188 2067.835938 L 911.242188 1431.734375 L 805.25 1431.734375 L 805.25 1829.296875 C 801.542969 1948.035156 803.449219 2018.75 804.5625 2060.996094 C 804.613281 2063.328125 804.667969 2065.609375 804.722656 2067.835938 C 804.722656 2067.835938 772.710938 2067.835938 769.796875 2067.835938 C 755.964844 1758.265625 752.253906 1539.714844 752.253906 1458.242188 L 752.253906 1395.742188 L 707.3125 1439.15625 C 700.847656 1445.414062 681.824219 1454.742188 669.261719 1460.945312 C 658.929688 1466.03125 649.546875 1470.75 643.613281 1474.566406 L 615.523438 1492.640625 L 646.316406 1522.433594 L 646.316406 2010.109375 C 643.929688 2008.996094 640.699219 2007.460938 636.667969 2005.074219 L 597.984375 1981.484375 L 593.265625 1977.085938 L 593.265625 1564.257812 C 593.265625 1549.734375 594.484375 1535.632812 595.597656 1522.484375 C 597.875 1495.1875 600.050781 1469.425781 591.25 1448.0625 C 589.554688 1439 583.515625 1425.585938 577.632812 1412.652344 C 569.894531 1395.53125 560.25 1374.222656 564.382812 1364.042969 C 566.980469 1357.578125 576.625 1352.648438 584.257812 1349.574219 L 593.105469 1346.074219 L 603.917969 1326.25 L 599.042969 1309.921875 C 591.304688 1292.269531 572.121094 1287.5 547.902344 1281.457031 C 539.367188 1279.335938 530.464844 1277.21875 523.257812 1274.460938 L 518.699219 1272.710938 L 513.769531 1272.710938 C 477.308594 1272.710938 458.074219 1281.5625 435.8125 1291.742188 C 429.878906 1294.445312 423.464844 1297.414062 415.992188 1300.488281 L 412.707031 1301.8125 L 300.726562 1388.429688 L 300.726562 1393.941406 C 293.308594 1392.03125 286.523438 1391.183594 279.738281 1391.183594 C 260.394531 1391.183594 243.121094 1398.074219 229.660156 1411.0625 L 225.789062 1414.773438 L 223.671875 1419.757812 C 222.34375 1422.9375 219.960938 1427.546875 217.46875 1431.683594 L 201.886719 1431.683594 C 195.953125 1425.90625 184.875 1411.117188 178.625 1396.0625 L 176.503906 1390.972656 L 172.582031 1387.210938 C 150.695312 1366.058594 126.847656 1341.304688 117.304688 1313.050781 L 137.605469 1299.957031 L 120.378906 1258.347656 L 115.929688 1232.585938 C 116.140625 1232.636719 116.457031 1232.691406 116.882812 1232.691406 C 121.386719 1232.691406 136.121094 1227.230469 144.335938 1224.261719 L 174.703125 1212.601562 C 186.414062 1211.433594 193.9375 1206.714844 198.445312 1203.324219 L 259.335938 1203.324219 L 212.117188 1157.738281 C 205.808594 1151.695312 199.609375 1143.582031 191.5 1133.300781 C 181.0625 1120.046875 167.917969 1103.402344 149.105469 1082.570312 C 130.925781 1057.710938 115.769531 1031.46875 104.480469 1004.171875 C 65.898438 850.339844 57.792969 691.476562 81.429688 535.683594 C 99.289062 467.304688 140.253906 411.910156 206.074219 368.867188 C 230.03125 358.476562 255.519531 333.191406 287.425781 301.546875 L 311.007812 278.382812 C 350.488281 235.550781 378.578125 213.074219 411.488281 190.28125 C 467.1875 159.058594 520.925781 145.4375 580.230469 132.238281 L 597.242188 129.535156 C 663.855469 118.773438 739.375 106.527344 826.289062 106.527344 C 848.019531 106.527344 870.542969 107.269531 893.914062 109.019531 C 1065.039062 118.773438 1210.566406 173.160156 1339.292969 275.414062 C 1392.660156 312.945312 1440.144531 358.902344 1477.984375 409.152344 C 1484.609375 420.074219 1492.984375 432.953125 1501.199219 445.625 C 1523.03125 479.285156 1543.648438 511.089844 1553.558594 536.585938 L 1554.828125 539.925781 L 1556.949219 542.789062 C 1601.570312 603.214844 1610.265625 704.886719 1582.015625 836.824219 C 1577.777344 876.421875 1569.988281 928.476562 1543.328125 1005.761719 L 1496.535156 1141.355469 L 1498.546875 1149.097656 C 1500.984375 1158.476562 1499.449219 1165.105469 1492.507812 1175.175781 L 1487.84375 1181.960938 L 1487.84375 1204.542969 C 1487.84375 1230.25 1516.089844 1236.1875 1539.511719 1239.527344 C 1543.0625 1241.808594 1545.660156 1243.664062 1546.242188 1244.457031 C 1546.242188 1244.457031 1547.144531 1246.261719 1547.144531 1252.304688 L 1538.824219 1294.390625 C 1528.226562 1309.871094 1516.832031 1325.296875 1501.039062 1334.464844 C 1469.929688 1354.449219 1439.5625 1388.375 1425.519531 1407.617188 C 1418.152344 1413.609375 1413.277344 1418.800781 1409.089844 1423.203125 C 1402.890625 1429.828125 1402.253906 1430.515625 1389.003906 1431.683594 C 1399.230469 1421.132812 1406.8125 1409.15625 1407.765625 1407.566406 L 1410.203125 1403.589844 L 1411.15625 1399.03125 C 1415.925781 1375.917969 1419.425781 1330.121094 1402.253906 1305.152344 L 1399.921875 1301.761719 L 1396.636719 1299.214844 C 1364.679688 1274.460938 1333.941406 1262.480469 1302.777344 1262.480469 C 1293.558594 1262.480469 1284.335938 1263.59375 1275.328125 1265.765625 L 1166.15625 1297.359375 L 1138.171875 1337.964844 L 1165.941406 1364.785156 C 1165.996094 1367.382812 1165.996094 1370.351562 1165.996094 1372.683594 L 1156.457031 1430.625 C 1151.261719 1452.039062 1148.558594 1472.871094 1146.226562 1491.160156 C 1142.835938 1517.34375 1140.398438 1536.269531 1131.285156 1545.121094 L 1123.226562 1553.019531 L 1123.226562 1776.289062 C 1123.226562 1904.570312 1117.714844 1976.875 1112.945312 2003.324219 L 1070.230469 2010.214844 L 1070.230469 1617.265625 C 1071.398438 1572.898438 1070.921875 1542.789062 1070.550781 1525.507812 L 1081.996094 1518.140625 L 1090.53125 1480.929688 L 1090.53125 1457.128906 L 1082.472656 1449.335938 C 1080.566406 1447.480469 1062.917969 1431.046875 1024.761719 1415.199219 L 1010.503906 1409.3125 L 964.238281 1445.253906 L 964.238281 2067.835938 Z M 864.023438 1413.078125 L 927.25 1343.160156 L 953.324219 1285.488281 C 964.824219 1270.113281 967.3125 1249.121094 960.265625 1225.800781 L 959.3125 1222.617188 L 949.03125 1205.550781 L 923.804688 1176.871094 L 905.519531 1124.394531 L 905.519531 1109.179688 L 879.710938 1080.609375 L 862.117188 1067.675781 L 845.6875 1060.730469 L 795.550781 1060.730469 L 782.355469 1085.007812 L 772.128906 1093.382812 L 748.121094 1122.75 L 748.121094 1137.433594 L 729.414062 1188.003906 L 722.472656 1209.3125 L 713.355469 1220.445312 L 699.257812 1245.464844 L 699.257812 1282.410156 L 728.511719 1354.132812 L 775.203125 1388.480469 L 803.765625 1353.441406 L 811.558594 1305.417969 L 835.246094 1283.3125 L 849.660156 1294.816406 Z M 1091.640625 1110.242188 C 1097.84375 1112.519531 1104.890625 1113.6875 1112.628906 1113.6875 C 1124.128906 1113.6875 1137.539062 1111.25 1154.8125 1105.949219 L 1245.277344 1093.703125 C 1361.128906 1081.351562 1387.574219 1062.269531 1396.582031 1050.925781 C 1408.773438 1041.488281 1420.324219 1029.296875 1429.226562 1016.363281 C 1447.9375 1002.847656 1454.5625 980.53125 1460.972656 958.847656 L 1463.410156 950.738281 C 1476.871094 927.414062 1482.542969 898.738281 1488.054688 870.960938 C 1489.804688 862.164062 1491.550781 853.363281 1493.566406 844.828125 L 1494.574219 840.640625 L 1490.070312 792.351562 C 1490.175781 781.90625 1475.28125 744.535156 1446.824219 744.535156 L 1435.324219 744.535156 L 1431.296875 748.089844 C 1415.027344 752.382812 1386.992188 765.421875 1324.613281 796.695312 C 1309.296875 804.382812 1296.101562 811.0625 1288.207031 814.613281 C 1275.0625 817.742188 1256.195312 830.09375 1224.769531 850.5 L 1202.722656 864.8125 L 1116.074219 922.167969 C 1111.464844 925.136719 1106.324219 928.742188 1100.863281 932.609375 C 1083.746094 944.75 1064.347656 958.425781 1036.3125 967.4375 L 936.839844 1002.847656 C 911.453125 1013.660156 911.085938 1032.425781 911.507812 1037.9375 C 913.363281 1060.835938 935.410156 1074.566406 992.804688 1088.773438 L 1044.898438 1097.414062 L 1052.636719 1100.910156 C 1063.605469 1106 1073.886719 1110.824219 1085.390625 1110.824219 C 1087.402344 1110.71875 1089.523438 1110.558594 1091.640625 1110.242188 Z M 264.105469 1052.9375 C 276.929688 1066.351562 313.710938 1078.382812 418.484375 1093.863281 L 506.617188 1106.902344 C 516.101562 1109.5 531.3125 1111.035156 550.445312 1111.035156 C 580.492188 1111.035156 609.429688 1107.113281 610.648438 1106.902344 L 674.828125 1092.75 L 677.902344 1091.15625 C 683.570312 1088.191406 689.929688 1085.855469 695.867188 1083.628906 C 706.199219 1079.707031 716.109375 1075.945312 724.378906 1069.953125 C 736.144531 1066.613281 747.273438 1061.898438 751.246094 1047.691406 C 755.804688 1031.417969 745.101562 1020.339844 739.324219 1014.402344 L 735.773438 1010.746094 L 634.65625 965.210938 C 621.246094 958.214844 606.515625 951.429688 592.789062 945.066406 C 576.042969 937.328125 560.886719 930.4375 549.648438 923.441406 C 467.027344 866.402344 400.414062 828.289062 373.808594 817.265625 C 343.546875 797.175781 307.882812 774.117188 262.410156 759.960938 C 250.007812 753.070312 236.652344 749.042969 224.730469 749.042969 C 198.816406 749.042969 186.519531 768.074219 181.910156 775.28125 L 178.996094 779.734375 L 169.667969 832.742188 C 169.296875 891.261719 200.882812 978.566406 214.820312 1002.582031 C 229.023438 1027.28125 243.808594 1042.445312 264.105469 1052.9375 Z M 264.105469 1052.9375 " fill-opacity="1" fill-rule="nonzero"/><path fill="#000000" d="M 826.289062 133.035156 C 848.230469 133.035156 870.332031 133.828125 892.90625 135.523438 C 1057.882812 144.90625 1198.484375 197.4375 1322.863281 296.140625 L 1324.085938 297.09375 L 1325.355469 297.996094 C 1374.535156 332.554688 1419.53125 375.863281 1455.515625 423.253906 C 1463.199219 435.605469 1471.203125 447.957031 1479.097656 460.09375 C 1499.238281 491.105469 1520.0625 523.226562 1528.96875 546.179688 L 1531.511719 552.804688 L 1535.75 558.53125 C 1575.179688 611.855469 1582.441406 708.757812 1556.207031 831.3125 L 1555.625 834.121094 L 1555.308594 836.984375 C 1551.648438 872.285156 1544.179688 922.378906 1518.367188 997.175781 L 1474.222656 1125.1875 L 1469.453125 1140.191406 L 1473.429688 1155.667969 C 1473.429688 1155.722656 1472.949219 1157.046875 1470.777344 1160.175781 L 1461.398438 1173.746094 L 1461.398438 1204.59375 C 1461.398438 1242.285156 1492.136719 1256.332031 1517.890625 1262.480469 L 1513.8125 1284.214844 C 1506.65625 1294.496094 1497.859375 1305.839844 1485.671875 1312.945312 C 1469.613281 1323.28125 1454.347656 1336.480469 1441.257812 1349.519531 C 1440.253906 1329.269531 1435.855469 1307.21875 1424.089844 1290.203125 L 1419.425781 1283.3125 L 1412.90625 1278.277344 C 1376.601562 1250.234375 1339.613281 1235.976562 1302.832031 1235.976562 C 1291.542969 1235.976562 1280.203125 1237.355469 1266.847656 1240.589844 L 1217.402344 1254.902344 L 1167.957031 1269.210938 L 1149.832031 1274.460938 L 1139.128906 1289.992188 L 1129.21875 1304.304688 L 1103.671875 1341.304688 L 1136 1372.527344 L 1138.542969 1375.015625 L 1130.648438 1424.472656 C 1124.976562 1448.753906 1122.222656 1470.273438 1119.941406 1487.714844 C 1118.085938 1502.078125 1115.542969 1521.796875 1112.839844 1525.984375 L 1105.6875 1532.875 L 1110.136719 1513.371094 L 1115.597656 1489.570312 L 1116.921875 1483.738281 L 1116.921875 1445.730469 L 1100.757812 1430.09375 C 1097.046875 1426.542969 1076.539062 1407.882812 1034.777344 1390.550781 L 1006.265625 1378.726562 L 981.941406 1397.652344 L 958.09375 1416.203125 L 937.742188 1432.320312 L 937.742188 2041.332031 L 937.742188 1405.230469 L 906.84375 1405.230469 L 922.636719 1387.792969 L 931.222656 1378.304688 L 944.101562 1364.042969 L 949.664062 1357.894531 L 953.109375 1350.316406 L 965.988281 1321.796875 L 976.429688 1298.738281 C 987.027344 1283.261719 997.257812 1256.703125 985.648438 1218.113281 L 983.742188 1211.75 L 980.296875 1206.027344 L 971.710938 1191.769531 L 969.0625 1187.367188 L 965.617188 1183.550781 L 952.738281 1169.292969 L 947.070312 1163.039062 L 932.070312 1119.886719 L 932.070312 1098.949219 L 929.261719 1095.824219 C 946.167969 1103.878906 966.199219 1109.5 986.339844 1114.480469 L 988.351562 1114.957031 L 990.417969 1115.277344 L 1037.164062 1122.964844 C 1038.59375 1123.597656 1039.972656 1124.234375 1041.296875 1124.871094 C 1053.75 1130.648438 1067.847656 1137.222656 1085.175781 1137.222656 C 1086.394531 1137.222656 1087.667969 1137.167969 1088.886719 1137.117188 C 1095.828125 1139.023438 1103.671875 1140.191406 1112.574219 1140.191406 C 1125.71875 1140.191406 1140.347656 1137.753906 1158.3125 1132.558594 L 1247.1875 1120.152344 C 1362.664062 1107.800781 1398.597656 1088.667969 1414.972656 1070.167969 C 1427.320312 1060.308594 1438.925781 1048.0625 1448.414062 1035.023438 C 1471.519531 1016.308594 1479.628906 988.957031 1486.304688 966.324219 L 1487.84375 961.183594 C 1502.363281 934.785156 1508.300781 904.941406 1514.023438 876.050781 C 1515.71875 867.570312 1517.363281 859.085938 1519.320312 850.871094 L 1521.28125 842.441406 L 1520.488281 833.855469 L 1516.355469 789.859375 C 1515.082031 776.289062 1508.933594 763.300781 1503.636719 754.449219 C 1484.820312 722.75 1459.914062 718.03125 1446.71875 718.03125 C 1439.140625 718.03125 1431.773438 719.515625 1424.9375 722.328125 C 1406.070312 727.257812 1376.972656 740.773438 1312.796875 773.003906 C 1299.652344 779.628906 1288.046875 785.460938 1280.203125 789.171875 C 1260.699219 795.53125 1241.09375 808.304688 1210.355469 828.289062 L 1187.671875 842.972656 L 1101.976562 899.746094 C 1096.78125 903.085938 1091.273438 906.902344 1085.441406 911.035156 C 1069.117188 922.589844 1052.214844 934.464844 1026.457031 942.789062 L 927.777344 977.984375 L 926.242188 978.515625 L 924.757812 979.152344 C 892.855469 992.773438 883.261719 1019.597656 884.957031 1040.109375 C 885.328125 1044.882812 886.175781 1049.28125 887.449219 1053.417969 L 880.398438 1048.222656 L 875.417969 1044.5625 L 869.695312 1042.125 L 861.109375 1038.46875 L 851.144531 1034.175781 L 779.8125 1034.175781 L 778.648438 1036.292969 C 777.164062 1015.621094 763.542969 1001.519531 758.296875 996.0625 L 751.195312 988.746094 L 741.921875 984.558594 L 646.6875 941.726562 C 632.058594 934.199219 617.484375 927.414062 603.8125 921.160156 C 587.808594 913.792969 572.703125 906.796875 565.601562 902.449219 C 484.886719 846.738281 419.015625 808.675781 388.648438 795 C 354.835938 773.160156 319.644531 750.898438 274.492188 736.160156 C 255.734375 726.992188 239.78125 722.644531 224.625 722.644531 C 197.808594 722.644531 175.921875 735.578125 159.542969 761.023438 L 153.769531 770.035156 L 151.914062 780.582031 L 143.539062 828.34375 L 142.796875 832.902344 L 142.796875 837.511719 C 142.796875 899.425781 177.191406 990.761719 191.925781 1016.097656 C 207.984375 1043.769531 225.472656 1062.003906 248.683594 1074.777344 C 273.75 1096.828125 326.589844 1107.113281 414.617188 1120.101562 L 500.308594 1132.769531 C 514.140625 1136.003906 530.570312 1137.539062 550.445312 1137.539062 C 582.296875 1137.539062 612.980469 1133.351562 614.253906 1133.195312 L 616.371094 1132.875 L 618.492188 1132.398438 L 677.210938 1119.359375 L 683.941406 1117.875 L 690.089844 1114.695312 C 694.914062 1112.203125 700.265625 1110.292969 705.246094 1108.4375 C 715.105469 1104.726562 725.863281 1100.644531 735.933594 1094.179688 C 736.566406 1093.96875 737.152344 1093.753906 737.785156 1093.542969 L 733.601562 1098.683594 L 721.675781 1113.316406 L 721.675781 1132.714844 L 703.921875 1180.796875 L 698.835938 1196.378906 L 692.84375 1203.695312 L 689.71875 1207.511719 L 687.335938 1211.859375 L 679.171875 1226.859375 L 672.761719 1238.734375 L 672.761719 1287.605469 L 676.683594 1297.253906 L 688.925781 1327.257812 L 701.167969 1357.257812 L 706.785156 1371.09375 L 718.8125 1379.945312 L 725.492188 1384.875 L 689.242188 1419.914062 C 684.367188 1424.101562 666.984375 1432.636719 657.601562 1437.25 C 646.632812 1442.65625 637.199219 1447.320312 629.25 1452.410156 L 621.566406 1457.339844 C 620.558594 1452.304688 619.179688 1447.320312 617.433594 1442.390625 C 613.667969 1428.078125 607.628906 1414.773438 601.796875 1401.839844 C 598.40625 1394.417969 593.320312 1383.128906 591.09375 1375.601562 C 591.941406 1375.175781 592.949219 1374.753906 594.113281 1374.328125 L 611.867188 1367.277344 L 621.035156 1350.472656 C 629.78125 1334.464844 630.628906 1315.859375 623.367188 1299.375 C 610.382812 1269.796875 580.601562 1262.375 554.367188 1255.90625 C 546.628906 1254 537.886719 1251.824219 532.851562 1249.863281 L 523.683594 1246.207031 L 513.769531 1246.207031 C 471.585938 1246.207031 447.792969 1257.125 424.789062 1267.675781 C 419.121094 1270.273438 412.972656 1273.082031 405.871094 1276.050781 L 399.351562 1278.753906 L 393.734375 1283.101562 L 294.84375 1359.539062 L 287.742188 1365 C 285.09375 1364.785156 282.441406 1364.679688 279.792969 1364.679688 C 253.878906 1364.679688 229.550781 1374.382812 211.320312 1391.980469 L 207.878906 1395.371094 C 206.074219 1392.296875 204.433594 1389.066406 203.160156 1385.9375 L 198.921875 1375.757812 L 190.972656 1368.125 C 176.664062 1354.292969 161.398438 1338.8125 151.222656 1322.699219 L 170.515625 1310.292969 L 153.609375 1269.425781 L 146.347656 1251.824219 C 148.839844 1250.871094 151.328125 1249.972656 153.449219 1249.175781 L 163.359375 1245.464844 L 181.21875 1238.574219 C 191.765625 1236.984375 200.035156 1233.433594 206.234375 1229.933594 L 324.839844 1229.933594 L 230.558594 1138.8125 C 226.160156 1134.570312 220.066406 1126.832031 212.382812 1117.078125 C 202.523438 1104.570312 189.167969 1087.605469 170.566406 1066.933594 C 153.554688 1043.664062 140.414062 1020.921875 130.394531 997.652344 C 92.558594 845.78125 84.765625 692.695312 107.238281 542.574219 C 124.035156 480.078125 160.605469 430.886719 218.847656 392.351562 C 246.5625 379.574219 273.117188 353.230469 306.078125 320.523438 C 313.605469 313.050781 321.394531 305.308594 329.398438 297.625 L 330.511719 296.5625 L 331.570312 295.398438 C 367.554688 256.277344 394 234.914062 424.527344 213.710938 C 477.839844 184.082031 528.609375 171.144531 584.46875 158.636719 L 601.160156 155.933594 C 666.878906 145.171875 741.335938 133.035156 826.289062 133.035156 M 830.316406 1355.246094 L 830.742188 1358.53125 L 836.359375 1405.230469 L 795.765625 1405.230469 L 811.664062 1385.726562 L 819.824219 1375.707031 L 828.78125 1364.734375 L 830.316406 1355.246094 M 1101.710938 1536.957031 L 1097.3125 1541.199219 C 1097.3125 1540.722656 1097.3125 1540.246094 1097.3125 1539.820312 L 1101.710938 1536.957031 M 619.765625 1564.257812 L 619.765625 1963.832031 L 619.765625 1564.257812 M 1096.730469 1617.953125 L 1096.730469 1776.289062 L 1096.730469 1618.644531 C 1096.730469 1618.429688 1096.730469 1618.167969 1096.730469 1617.953125 M 826.289062 80.023438 C 728.988281 80.023438 646.84375 94.8125 574.503906 106.476562 C 510.21875 120.789062 455.847656 135.152344 396.492188 168.601562 C 361.882812 192.507812 332.207031 216.363281 292.671875 259.40625 C 253.136719 297.625 218.476562 335.84375 193.78125 345.4375 C 119.585938 393.199219 75.121094 455.324219 55.300781 531.816406 C 36.804688 653.203125 30.550781 818.484375 79.996094 1014.402344 C 89.90625 1038.308594 104.746094 1066.984375 129.441406 1100.433594 C 164.050781 1138.652344 178.886719 1162.558594 193.726562 1176.871094 C 183.816406 1176.871094 183.816406 1186.414062 168.976562 1186.414062 L 144.28125 1195.957031 C 119.53125 1205.550781 89.800781 1213.183594 89.800781 1237.089844 L 94.730469 1265.765625 L 104.640625 1289.675781 L 89.800781 1299.214844 L 89.800781 1313.527344 C 99.710938 1351.746094 129.441406 1382.332031 154.140625 1406.238281 C 164.050781 1430.144531 185.882812 1458.242188 195.792969 1458.242188 L 230.402344 1458.242188 C 240.3125 1448.699219 248.101562 1430.144531 248.101562 1430.144531 C 257.480469 1421.082031 268.875 1417.742188 279.738281 1417.742188 C 285.992188 1417.742188 292.089844 1418.855469 297.546875 1420.605469 L 322.242188 1430.144531 L 356.847656 1454.050781 C 371.6875 1454.050781 381.546875 1444.511719 396.382812 1439.742188 C 406.347656 1430.144531 407.777344 1425.375 407.777344 1425.375 L 386.582031 1415.832031 L 361.832031 1415.832031 C 337.136719 1415.832031 327.226562 1406.292969 327.226562 1401.519531 L 426.117188 1325.082031 C 460.722656 1310.664062 474.234375 1299.214844 513.769531 1299.214844 C 538.519531 1308.757812 581.339844 1312.414062 574.453125 1324.976562 C 500.523438 1354.449219 556.855469 1415.25 566.769531 1458.242188 C 576.679688 1482.148438 566.769531 1521.214844 566.769531 1564.257812 C 566.769531 1650.289062 566.769531 1771.890625 566.769531 1988.324219 L 581.605469 2002.636719 L 623.316406 2028.078125 C 635.664062 2035.234375 645.574219 2038.839844 653.574219 2038.839844 C 661.632812 2038.839844 667.777344 2035.234375 672.761719 2028.078125 C 672.761719 1972.84375 672.761719 1943.53125 672.761719 1776.289062 C 672.761719 1604.277344 672.761719 1525.5625 672.761719 1511.25 L 657.921875 1496.9375 C 672.761719 1487.394531 710.917969 1472.605469 725.757812 1458.242188 C 725.757812 1534.464844 729.308594 1759.855469 744.144531 2084.796875 C 744.144531 2094.339844 754.003906 2094.339844 778.753906 2094.339844 L 831.75 2094.339844 C 831.75 2057.871094 826.820312 1986.996094 831.75 1829.296875 L 831.75 1617.265625 C 831.75 1555.140625 831.75 1489.726562 831.75 1458.242188 L 884.746094 1458.242188 C 884.746094 1580.847656 884.746094 1695.132812 884.746094 1829.296875 C 884.746094 1999.933594 884.746094 2047.957031 884.746094 2094.339844 L 990.738281 2094.339844 C 990.738281 2034.707031 990.738281 1978.359375 990.738281 1829.296875 C 990.738281 1739.820312 990.738281 1693.703125 990.738281 1617.265625 C 990.738281 1545.597656 990.738281 1509.605469 990.738281 1458.242188 L 1014.585938 1439.6875 C 1049.191406 1454 1064.03125 1468.363281 1064.03125 1468.363281 L 1064.03125 1477.90625 L 1058.574219 1501.707031 L 1043.734375 1511.25 C 1043.734375 1520.789062 1045.375 1554.34375 1043.734375 1617.265625 L 1043.734375 1776.289062 C 1043.734375 1980.054688 1043.734375 1988.324219 1043.734375 2041.332031 L 1132.769531 2027.019531 C 1142.625 2017.425781 1149.726562 1919.835938 1149.726562 1776.289062 C 1149.726562 1647.054688 1149.726562 1650.289062 1149.726562 1564.257812 C 1174.476562 1540.351562 1167.851562 1497.042969 1182.691406 1434.917969 L 1192.601562 1372.789062 C 1192.601562 1358.480469 1192.601562 1344.113281 1182.691406 1344.113281 L 1172.78125 1334.570312 L 1182.691406 1320.257812 L 1232.136719 1305.949219 L 1281.582031 1291.636719 C 1288.839844 1289.886719 1295.941406 1289.089844 1302.832031 1289.089844 C 1333.515625 1289.089844 1360.28125 1304.675781 1380.472656 1320.3125 C 1390.382812 1334.625 1390.222656 1369.875 1385.242188 1393.730469 C 1385.242188 1393.730469 1376.019531 1408.625 1365.472656 1417.636719 C 1355.617188 1441.4375 1366.109375 1458.242188 1390.222656 1458.242188 C 1425.730469 1455.164062 1420.21875 1445.199219 1444.96875 1426.117188 C 1454.878906 1411.804688 1484.714844 1376.554688 1514.339844 1357.472656 C 1539.089844 1343.160156 1553.875 1319.253906 1563.785156 1304.886719 L 1573.695312 1252.304688 C 1573.695312 1228.394531 1563.785156 1223.625 1548.945312 1214.085938 C 1514.339844 1209.3125 1514.339844 1204.542969 1514.339844 1204.542969 L 1514.339844 1190.230469 C 1524.25 1175.917969 1529.179688 1161.554688 1524.25 1142.46875 L 1568.398438 1014.453125 C 1593.144531 942.789062 1603.003906 890.203125 1607.933594 842.441406 C 1637.609375 703.878906 1627.699219 593.941406 1578.253906 527.042969 C 1563.414062 488.824219 1528.808594 441.011719 1499.128906 393.25 C 1459.59375 340.667969 1410.097656 292.90625 1355.722656 254.6875 C 1217.242188 144.800781 1063.976562 92.21875 895.820312 82.675781 C 871.867188 80.820312 848.65625 80.023438 826.289062 80.023438 Z M 1085.175781 1084.214844 C 1077.386719 1084.214844 1067 1078.011719 1052.425781 1071.757812 L 999.003906 1062.957031 C 945.585938 1049.757812 925.023438 1036.558594 945.585938 1027.761719 L 1044.265625 992.5625 C 1085.390625 979.363281 1110.03125 957.363281 1130.59375 944.21875 L 1216.925781 887.074219 C 1258.050781 860.679688 1282.695312 843.078125 1299.121094 838.734375 C 1327.898438 825.535156 1426.578125 772.789062 1443.007812 772.789062 C 1444.171875 771.570312 1445.390625 770.988281 1446.71875 770.988281 C 1454.507812 770.988281 1463.570312 790.972656 1463.570312 794.734375 L 1467.703125 838.734375 C 1459.488281 873.929688 1455.355469 913.472656 1438.925781 939.871094 C 1430.710938 966.269531 1426.578125 988.214844 1410.148438 997.015625 C 1401.9375 1010.214844 1389.585938 1023.414062 1377.238281 1032.210938 C 1369.023438 1045.410156 1323.820312 1058.609375 1241.570312 1067.410156 L 1147.023438 1080.609375 C 1132.660156 1084.957031 1121.320312 1087.183594 1112.574219 1087.183594 C 1103.832031 1087.183594 1097.683594 1085.007812 1093.550781 1080.609375 C 1091.164062 1083.152344 1088.410156 1084.214844 1085.175781 1084.214844 Z M 550.390625 1084.53125 C 536.082031 1084.53125 521.667969 1083.578125 510.433594 1080.664062 L 422.300781 1067.621094 C 334.167969 1054.582031 283.820312 1041.542969 283.820312 1032.902344 C 262.835938 1024.207031 250.273438 1011.167969 237.660156 989.488281 C 225.152344 967.753906 195.792969 885.273438 195.792969 837.511719 L 204.167969 789.753906 C 209.203125 781.960938 214.238281 775.707031 224.730469 775.707031 C 231.726562 775.707031 241.105469 778.460938 254.515625 785.40625 C 296.488281 798.445312 330.035156 820.125 363.582031 841.859375 C 384.566406 850.554688 447.472656 885.273438 535.605469 946.074219 C 556.59375 959.113281 590.140625 972.15625 623.738281 989.488281 L 720.246094 1032.902344 C 728.617188 1041.59375 728.617188 1041.59375 711.871094 1045.941406 C 703.496094 1054.636719 682.511719 1058.980469 665.710938 1067.675781 L 606.992188 1080.714844 C 606.9375 1080.664062 579.011719 1084.53125 550.390625 1084.53125 Z M 770.589844 1352.222656 L 750.1875 1337.222656 L 737.945312 1307.21875 L 725.757812 1277.21875 L 725.757812 1252.195312 L 733.917969 1237.195312 L 746.160156 1222.195312 L 754.320312 1197.175781 L 774.726562 1142.152344 L 774.726562 1132.132812 L 782.886719 1122.113281 L 791.046875 1112.097656 L 803.289062 1102.078125 L 811.34375 1087.183594 L 840.335938 1087.183594 L 848.917969 1090.839844 L 861.796875 1100.328125 L 878.96875 1119.304688 L 878.96875 1128.792969 L 900.484375 1190.601562 L 913.363281 1204.859375 L 926.242188 1219.121094 L 934.828125 1233.378906 C 939.121094 1247.636719 939.121094 1261.898438 930.535156 1271.386719 L 917.65625 1299.90625 L 904.777344 1328.421875 L 891.898438 1342.683594 L 883.3125 1352.222656 L 874.730469 1280.925781 L 833.976562 1248.433594 L 786.914062 1292.21875 L 778.753906 1342.207031 Z M 770.589844 1352.222656 " fill-opacity="1" fill-rule="nonzero"/><g fill="#ff00ff" fill-opacity="1"><g transform="translate(1656.409466, 868.094256)"><g><path d="M 203.109375 -107.371094 C 196.566406 -114.160156 188.566406 -117.550781 178.871094 -117.550781 L 19.390625 -117.550781 L 19.390625 0 L 39.023438 0 L 39.023438 -48.960938 L 178.871094 -48.960938 C 188.566406 -48.960938 196.566406 -52.351562 203.109375 -59.140625 C 209.898438 -65.683594 213.289062 -73.683594 213.289062 -83.375 C 213.289062 -92.585938 209.898438 -100.585938 203.109375 -107.371094 Z M 189.292969 -72.953125 C 186.386719 -70.046875 182.992188 -68.59375 178.871094 -68.59375 L 39.023438 -68.59375 L 39.023438 -97.917969 L 178.871094 -97.917969 C 182.992188 -97.917969 186.386719 -96.464844 189.292969 -93.558594 C 192.203125 -90.648438 193.65625 -87.253906 193.65625 -83.375 C 193.65625 -79.257812 192.203125 -75.621094 189.292969 -72.953125 Z M 189.292969 -72.953125 "/></g></g></g><g fill="#ff00ff" fill-opacity="1"><g transform="translate(1889.088855, 868.094256)"><g><path d="M 208.199219 -65.199219 C 211.59375 -70.773438 213.289062 -76.589844 213.289062 -83.375 C 213.289062 -92.585938 209.898438 -100.585938 203.109375 -107.371094 C 196.566406 -114.160156 188.566406 -117.550781 178.871094 -117.550781 L 19.390625 -117.550781 L 19.390625 0 L 39.023438 0 L 39.023438 -48.960938 L 154.636719 -48.960938 C 165.300781 -48.960938 174.511719 -45.082031 182.265625 -37.566406 C 189.78125 -29.8125 193.65625 -20.601562 193.65625 -9.9375 L 193.65625 0 L 213.289062 0 L 213.289062 -9.9375 C 213.289062 -26.902344 206.988281 -41.203125 194.625 -52.835938 C 200.203125 -55.746094 204.808594 -59.867188 208.199219 -65.199219 Z M 189.292969 -72.953125 C 186.386719 -70.046875 182.992188 -68.59375 178.871094 -68.59375 L 39.023438 -68.59375 L 39.023438 -97.917969 L 178.871094 -97.917969 C 182.992188 -97.917969 186.386719 -96.464844 189.292969 -93.558594 C 192.203125 -90.648438 193.65625 -87.253906 193.65625 -83.375 C 193.65625 -79.257812 192.203125 -75.621094 189.292969 -72.953125 Z M 189.292969 -72.953125 "/></g></g></g><g fill="#ff00ff" fill-opacity="1"><g transform="translate(2121.768243, 868.094256)"><g><path d="M 203.109375 -107.613281 C 196.324219 -114.402344 188.566406 -117.550781 178.871094 -117.550781 L 53.566406 -117.550781 C 43.871094 -117.550781 36.113281 -114.402344 29.570312 -107.613281 C 22.785156 -100.585938 19.390625 -93.070312 19.390625 -83.863281 L 19.390625 -34.175781 C 19.390625 -24.722656 22.785156 -16.722656 29.570312 -9.9375 C 36.113281 -3.152344 44.113281 0 53.808594 0 L 179.113281 0 C 188.808594 0 196.566406 -3.152344 203.109375 -9.9375 C 209.898438 -16.964844 213.289062 -24.722656 213.289062 -34.175781 L 213.289062 -83.375 C 213.289062 -92.828125 209.898438 -100.828125 203.109375 -107.613281 Z M 189.292969 -23.996094 C 186.386719 -21.085938 182.992188 -19.632812 178.871094 -19.632812 L 50.898438 -19.632812 C 48.234375 -20.117188 45.566406 -21.570312 43.386719 -23.753906 C 40.476562 -26.660156 39.023438 -30.054688 39.023438 -34.175781 L 39.023438 -83.375 C 39.023438 -87.496094 40.476562 -90.890625 43.386719 -93.800781 C 46.292969 -96.707031 49.6875 -98.160156 53.808594 -98.160156 L 178.871094 -98.160156 C 182.992188 -98.160156 186.386719 -96.707031 189.292969 -93.800781 C 192.203125 -90.890625 193.65625 -87.496094 193.65625 -83.375 L 193.65625 -34.175781 C 193.65625 -30.296875 192.203125 -26.902344 189.292969 -23.996094 Z M 189.292969 -23.996094 "/></g></g></g><g fill="#ff00ff" fill-opacity="1"><g transform="translate(2354.447631, 868.094256)"><g><path d="M 43.386719 -93.800781 C 45.566406 -95.980469 48.234375 -97.433594 50.898438 -97.917969 L 213.289062 -97.917969 L 213.289062 -117.550781 L 53.808594 -117.550781 C 44.113281 -117.550781 36.113281 -114.402344 29.570312 -107.613281 C 22.785156 -100.585938 19.390625 -92.828125 19.390625 -83.375 L 19.390625 0 L 39.023438 0 L 39.023438 -48.960938 L 192.6875 -48.960938 L 192.6875 -68.59375 L 39.023438 -68.59375 L 39.023438 -83.375 C 39.023438 -87.496094 40.476562 -90.890625 43.386719 -93.800781 Z M 43.386719 -93.800781 "/></g></g></g><g fill="#ff00ff" fill-opacity="1"><g transform="translate(2587.12702, 868.094256)"><g><path d="M 39.023438 -19.632812 L 19.390625 -19.632812 L 19.390625 0 L 39.023438 0 Z M 39.023438 -19.632812 "/></g></g></g><g fill="#ff00ff" fill-opacity="1"><g transform="translate(2645.539259, 868.094256)"><g/></g></g><g fill="#ff00ff" fill-opacity="1"><g transform="translate(2790.96391, 868.094256)"><g><path d="M 203.109375 -58.171875 C 196.566406 -64.957031 188.566406 -68.351562 178.871094 -68.351562 L 53.566406 -68.351562 C 49.445312 -68.351562 46.050781 -69.804688 43.144531 -72.710938 C 40.234375 -75.621094 39.023438 -79.015625 39.023438 -83.132812 C 39.023438 -87.011719 40.234375 -90.40625 43.144531 -93.3125 C 46.050781 -96.222656 49.445312 -97.675781 53.566406 -97.675781 L 208.441406 -97.675781 L 208.441406 -117.308594 L 53.566406 -117.308594 C 44.113281 -117.308594 36.113281 -113.917969 29.328125 -107.128906 C 22.785156 -100.585938 19.390625 -92.34375 19.390625 -83.132812 C 19.390625 -73.683594 22.785156 -65.441406 29.328125 -58.898438 C 36.113281 -52.109375 44.113281 -48.71875 53.566406 -48.71875 L 178.871094 -48.71875 C 182.992188 -48.71875 186.386719 -47.261719 189.292969 -44.597656 C 192.203125 -41.6875 193.65625 -38.054688 193.65625 -34.175781 C 193.65625 -30.054688 192.203125 -26.660156 189.292969 -23.753906 C 186.386719 -20.84375 182.992188 -19.390625 178.871094 -19.390625 L 24.238281 -19.390625 L 24.238281 0 L 178.871094 0 C 188.566406 0 196.566406 -3.152344 203.109375 -9.9375 C 209.898438 -16.722656 213.289062 -24.722656 213.289062 -34.175781 C 213.289062 -43.628906 209.898438 -51.625 203.109375 -58.171875 Z M 203.109375 -58.171875 "/></g></g></g><g fill="#ff00ff" fill-opacity="1"><g transform="translate(3023.643299, 868.094256)"><g><path d="M 38.78125 -117.550781 L 19.390625 -117.550781 L 19.390625 0 L 39.023438 0 Z M 38.78125 -117.550781 "/></g></g></g><g fill="#ff00ff" fill-opacity="1"><g transform="translate(3082.055538, 868.094256)"><g><path d="M 78.042969 -19.632812 C 67.136719 -19.632812 57.925781 -23.511719 50.414062 -31.023438 C 42.65625 -38.78125 39.023438 -47.988281 39.023438 -58.65625 L 39.023438 -117.550781 L 19.390625 -117.550781 L 19.390625 -58.65625 C 19.390625 -42.65625 25.207031 -28.84375 36.597656 -17.207031 C 47.988281 -5.816406 61.804688 0 78.042969 0 L 213.289062 0 L 213.289062 -19.632812 Z M 78.042969 -19.632812 "/></g></g></g><g fill="#ff00ff" fill-opacity="1"><g transform="translate(3314.735016, 868.094256)"><g><path d="M 193.65625 -117.550781 L 193.65625 -19.875 L 50.898438 -19.632812 C 48.234375 -20.117188 45.566406 -21.570312 43.386719 -23.753906 C 40.476562 -26.660156 39.023438 -30.054688 39.023438 -34.175781 L 39.023438 -117.550781 L 19.390625 -117.550781 L 19.390625 -34.175781 C 19.390625 -24.722656 22.785156 -16.722656 29.570312 -9.9375 C 36.113281 -3.152344 44.113281 0 53.808594 0 L 213.289062 0 L 213.289062 -117.550781 Z M 193.65625 -117.550781 "/></g></g></g><g fill="#ff00ff" fill-opacity="1"><g transform="translate(3547.414307, 868.094256)"><g><path d="M 38.78125 -117.550781 L 19.390625 -117.550781 L 19.390625 0 L 39.023438 0 Z M 38.78125 -117.550781 "/></g></g></g><g fill="#ff00ff" fill-opacity="1"><g transform="translate(3605.826454, 868.094256)"><g><path d="M 203.109375 -107.613281 C 196.324219 -114.402344 188.566406 -117.550781 178.871094 -117.550781 L 53.566406 -117.550781 C 43.871094 -117.550781 36.113281 -114.402344 29.570312 -107.613281 C 22.785156 -100.585938 19.390625 -93.070312 19.390625 -83.863281 L 19.390625 -34.175781 C 19.390625 -24.722656 22.785156 -16.722656 29.570312 -9.9375 C 36.113281 -3.152344 44.113281 0 53.808594 0 L 179.113281 0 C 188.808594 0 196.566406 -3.152344 203.109375 -9.9375 C 209.898438 -16.964844 213.289062 -24.722656 213.289062 -34.175781 L 213.289062 -83.375 C 213.289062 -92.828125 209.898438 -100.828125 203.109375 -107.613281 Z M 189.292969 -23.996094 C 186.386719 -21.085938 182.992188 -19.632812 178.871094 -19.632812 L 50.898438 -19.632812 C 48.234375 -20.117188 45.566406 -21.570312 43.386719 -23.753906 C 40.476562 -26.660156 39.023438 -30.054688 39.023438 -34.175781 L 39.023438 -83.375 C 39.023438 -87.496094 40.476562 -90.890625 43.386719 -93.800781 C 46.292969 -96.707031 49.6875 -98.160156 53.808594 -98.160156 L 178.871094 -98.160156 C 182.992188 -98.160156 186.386719 -96.707031 189.292969 -93.800781 C 192.203125 -90.890625 193.65625 -87.496094 193.65625 -83.375 L 193.65625 -34.175781 C 193.65625 -30.296875 192.203125 -26.902344 189.292969 -23.996094 Z M 189.292969 -23.996094 "/></g></g></g><g fill="#ff00ff" fill-opacity="1"><g transform="translate(3838.505745, 868.094256)"><g/></g></g><g fill="#ff00ff" fill-opacity="1"><g transform="translate(3983.930306, 868.094256)"><g><path d="M 213.289062 -68.59375 L 78.042969 -68.59375 L 78.042969 -48.960938 L 193.65625 -48.960938 L 193.65625 -34.175781 C 193.65625 -30.296875 192.203125 -26.902344 189.292969 -23.996094 C 186.386719 -21.085938 182.992188 -19.632812 178.871094 -19.632812 L 50.898438 -19.632812 C 48.234375 -20.117188 45.566406 -21.570312 43.386719 -23.753906 C 40.476562 -26.660156 39.023438 -30.054688 39.023438 -34.175781 L 39.023438 -83.375 C 39.023438 -87.496094 40.476562 -90.890625 43.386719 -93.800781 C 46.292969 -96.707031 49.6875 -98.160156 53.808594 -98.160156 L 178.871094 -98.160156 C 182.992188 -98.160156 186.386719 -96.707031 189.292969 -93.800781 C 192.203125 -90.890625 193.65625 -87.496094 193.65625 -83.375 L 213.289062 -83.375 C 213.289062 -92.828125 209.898438 -100.828125 203.109375 -107.613281 C 196.324219 -114.402344 188.566406 -117.550781 178.871094 -117.550781 L 53.566406 -117.550781 C 43.871094 -117.550781 36.113281 -114.402344 29.570312 -107.613281 C 22.785156 -100.585938 19.390625 -93.070312 19.390625 -83.863281 L 19.390625 -34.175781 C 19.390625 -24.722656 22.785156 -16.722656 29.570312 -9.9375 C 36.113281 -3.152344 44.113281 0 53.808594 0 L 179.113281 0 C 188.808594 0 196.566406 -3.152344 203.109375 -9.9375 C 209.898438 -16.964844 213.289062 -24.722656 213.289062 -34.175781 Z M 213.289062 -68.59375 "/></g></g></g><g fill="#ff00ff" fill-opacity="1"><g transform="translate(4216.609785, 868.094256)"><g><path d="M 38.78125 -117.550781 L 19.390625 -117.550781 L 19.390625 0 L 39.023438 0 Z M 38.78125 -117.550781 "/></g></g></g><g fill="#ff00ff" fill-opacity="1"><g transform="translate(4275.021932, 868.094256)"><g><path d="M 203.109375 -107.613281 C 196.566406 -114.402344 188.808594 -117.550781 179.113281 -117.550781 L 53.808594 -117.550781 C 44.113281 -117.550781 36.113281 -114.402344 29.570312 -107.613281 C 22.785156 -100.585938 19.390625 -92.828125 19.390625 -83.375 L 19.390625 0 L 39.023438 0 L 39.023438 -48.960938 L 193.65625 -48.960938 L 193.65625 0 L 213.289062 0 L 213.289062 -83.375 C 213.289062 -92.828125 209.898438 -100.585938 203.109375 -107.613281 Z M 193.65625 -68.59375 L 39.023438 -68.59375 L 39.023438 -83.375 C 39.023438 -87.496094 40.476562 -90.890625 43.386719 -93.800781 C 45.566406 -95.980469 48.234375 -97.433594 50.898438 -97.917969 L 178.871094 -97.917969 C 182.992188 -97.917969 186.386719 -96.464844 189.292969 -93.558594 C 192.203125 -90.648438 193.65625 -87.253906 193.65625 -83.375 Z M 193.65625 -68.59375 "/></g></g></g><g fill="#ff00ff" fill-opacity="1"><g transform="translate(4507.701223, 868.094256)"><g><path d="M 193.65625 -117.550781 L 193.65625 -19.875 L 50.898438 -19.632812 C 48.234375 -20.117188 45.566406 -21.570312 43.386719 -23.753906 C 40.476562 -26.660156 39.023438 -30.054688 39.023438 -34.175781 L 39.023438 -117.550781 L 19.390625 -117.550781 L 19.390625 -34.175781 C 19.390625 -24.722656 22.785156 -16.722656 29.570312 -9.9375 C 36.113281 -3.152344 44.113281 0 53.808594 0 L 213.289062 0 L 213.289062 -117.550781 Z M 193.65625 -117.550781 "/></g></g></g><g fill="#ff00ff" fill-opacity="1"><g transform="translate(4740.380514, 868.094256)"><g><path d="M 203.109375 -107.613281 C 196.566406 -114.402344 188.808594 -117.550781 179.113281 -117.550781 L 53.808594 -117.550781 C 44.113281 -117.550781 36.113281 -114.402344 29.570312 -107.613281 C 22.785156 -100.585938 19.390625 -92.828125 19.390625 -83.375 L 19.390625 0 L 39.023438 0 L 39.023438 -48.960938 L 193.65625 -48.960938 L 193.65625 0 L 213.289062 0 L 213.289062 -83.375 C 213.289062 -92.828125 209.898438 -100.585938 203.109375 -107.613281 Z M 193.65625 -68.59375 L 39.023438 -68.59375 L 39.023438 -83.375 C 39.023438 -87.496094 40.476562 -90.890625 43.386719 -93.800781 C 45.566406 -95.980469 48.234375 -97.433594 50.898438 -97.917969 L 178.871094 -97.917969 C 182.992188 -97.917969 186.386719 -96.464844 189.292969 -93.558594 C 192.203125 -90.648438 193.65625 -87.253906 193.65625 -83.375 Z M 193.65625 -68.59375 "/></g></g></g><g fill="#ff00ff" fill-opacity="1"><g transform="translate(4973.059804, 868.094256)"><g><path d="M 208.199219 -65.199219 C 211.59375 -70.773438 213.289062 -76.589844 213.289062 -83.375 C 213.289062 -92.585938 209.898438 -100.585938 203.109375 -107.371094 C 196.566406 -114.160156 188.566406 -117.550781 178.871094 -117.550781 L 19.390625 -117.550781 L 19.390625 0 L 39.023438 0 L 39.023438 -48.960938 L 154.636719 -48.960938 C 165.300781 -48.960938 174.511719 -45.082031 182.265625 -37.566406 C 189.78125 -29.8125 193.65625 -20.601562 193.65625 -9.9375 L 193.65625 0 L 213.289062 0 L 213.289062 -9.9375 C 213.289062 -26.902344 206.988281 -41.203125 194.625 -52.835938 C 200.203125 -55.746094 204.808594 -59.867188 208.199219 -65.199219 Z M 189.292969 -72.953125 C 186.386719 -70.046875 182.992188 -68.59375 178.871094 -68.59375 L 39.023438 -68.59375 L 39.023438 -97.917969 L 178.871094 -97.917969 C 182.992188 -97.917969 186.386719 -96.464844 189.292969 -93.558594 C 192.203125 -90.648438 193.65625 -87.253906 193.65625 -83.375 C 193.65625 -79.257812 192.203125 -75.621094 189.292969 -72.953125 Z M 189.292969 -72.953125 "/></g></g></g><g fill="#ff00ff" fill-opacity="1"><g transform="translate(5205.739095, 868.094256)"><g><path d="M 203.109375 -107.613281 C 196.324219 -114.402344 188.566406 -117.550781 178.871094 -117.550781 L 53.566406 -117.550781 C 43.871094 -117.550781 36.113281 -114.402344 29.570312 -107.613281 C 22.785156 -100.585938 19.390625 -93.070312 19.390625 -83.863281 L 19.390625 -34.175781 C 19.390625 -24.722656 22.785156 -16.722656 29.570312 -9.9375 C 36.113281 -3.152344 44.113281 0 53.808594 0 L 179.113281 0 C 188.808594 0 196.566406 -3.152344 203.109375 -9.9375 C 209.898438 -16.964844 213.289062 -24.722656 213.289062 -34.175781 L 213.289062 -83.375 C 213.289062 -92.828125 209.898438 -100.828125 203.109375 -107.613281 Z M 189.292969 -23.996094 C 186.386719 -21.085938 182.992188 -19.632812 178.871094 -19.632812 L 50.898438 -19.632812 C 48.234375 -20.117188 45.566406 -21.570312 43.386719 -23.753906 C 40.476562 -26.660156 39.023438 -30.054688 39.023438 -34.175781 L 39.023438 -83.375 C 39.023438 -87.496094 40.476562 -90.890625 43.386719 -93.800781 C 46.292969 -96.707031 49.6875 -98.160156 53.808594 -98.160156 L 178.871094 -98.160156 C 182.992188 -98.160156 186.386719 -96.707031 189.292969 -93.800781 C 192.203125 -90.890625 193.65625 -87.496094 193.65625 -83.375 L 193.65625 -34.175781 C 193.65625 -30.296875 192.203125 -26.902344 189.292969 -23.996094 Z M 189.292969 -23.996094 "/></g></g></g><g fill="#ff00ff" fill-opacity="1"><g transform="translate(5438.418386, 868.094256)"><g><path d="M 213.289062 -117.550781 L 213.289062 -97.917969 L 126.519531 -97.917969 L 126.519531 0 L 106.886719 0 L 106.886719 -97.917969 L 19.390625 -97.917969 L 19.390625 -117.550781 Z M 213.289062 -117.550781 "/></g></g></g><g fill="#ff00ff" fill-opacity="1"><g transform="translate(5671.097677, 868.094256)"><g><path d="M 203.109375 -107.613281 C 196.324219 -114.402344 188.566406 -117.550781 178.871094 -117.550781 L 53.566406 -117.550781 C 43.871094 -117.550781 36.113281 -114.402344 29.570312 -107.613281 C 22.785156 -100.585938 19.390625 -93.070312 19.390625 -83.863281 L 19.390625 -34.175781 C 19.390625 -24.722656 22.785156 -16.722656 29.570312 -9.9375 C 36.113281 -3.152344 44.113281 0 53.808594 0 L 179.113281 0 C 188.808594 0 196.566406 -3.152344 203.109375 -9.9375 C 209.898438 -16.964844 213.289062 -24.722656 213.289062 -34.175781 L 213.289062 -83.375 C 213.289062 -92.828125 209.898438 -100.828125 203.109375 -107.613281 Z M 189.292969 -23.996094 C 186.386719 -21.085938 182.992188 -19.632812 178.871094 -19.632812 L 50.898438 -19.632812 C 48.234375 -20.117188 45.566406 -21.570312 43.386719 -23.753906 C 40.476562 -26.660156 39.023438 -30.054688 39.023438 -34.175781 L 39.023438 -83.375 C 39.023438 -87.496094 40.476562 -90.890625 43.386719 -93.800781 C 46.292969 -96.707031 49.6875 -98.160156 53.808594 -98.160156 L 178.871094 -98.160156 C 182.992188 -98.160156 186.386719 -96.707031 189.292969 -93.800781 C 192.203125 -90.890625 193.65625 -87.496094 193.65625 -83.375 L 193.65625 -34.175781 C 193.65625 -30.296875 192.203125 -26.902344 189.292969 -23.996094 Z M 189.292969 -23.996094 "/></g></g></g><g fill="#00ffff" fill-opacity="1"><g transform="translate(1683.9344, 859.679013)"><g><path d="M 203.109375 -107.371094 C 196.566406 -114.160156 188.566406 -117.550781 178.871094 -117.550781 L 19.390625 -117.550781 L 19.390625 0 L 39.023438 0 L 39.023438 -48.960938 L 178.871094 -48.960938 C 188.566406 -48.960938 196.566406 -52.351562 203.109375 -59.140625 C 209.898438 -65.683594 213.289062 -73.683594 213.289062 -83.375 C 213.289062 -92.585938 209.898438 -100.585938 203.109375 -107.371094 Z M 189.292969 -72.953125 C 186.386719 -70.046875 182.992188 -68.59375 178.871094 -68.59375 L 39.023438 -68.59375 L 39.023438 -97.917969 L 178.871094 -97.917969 C 182.992188 -97.917969 186.386719 -96.464844 189.292969 -93.558594 C 192.203125 -90.648438 193.65625 -87.253906 193.65625 -83.375 C 193.65625 -79.257812 192.203125 -75.621094 189.292969 -72.953125 Z M 189.292969 -72.953125 "/></g></g></g><g fill="#00ffff" fill-opacity="1"><g transform="translate(1916.613788, 859.679013)"><g><path d="M 208.199219 -65.199219 C 211.59375 -70.773438 213.289062 -76.589844 213.289062 -83.375 C 213.289062 -92.585938 209.898438 -100.585938 203.109375 -107.371094 C 196.566406 -114.160156 188.566406 -117.550781 178.871094 -117.550781 L 19.390625 -117.550781 L 19.390625 0 L 39.023438 0 L 39.023438 -48.960938 L 154.636719 -48.960938 C 165.300781 -48.960938 174.511719 -45.082031 182.265625 -37.566406 C 189.78125 -29.8125 193.65625 -20.601562 193.65625 -9.9375 L 193.65625 0 L 213.289062 0 L 213.289062 -9.9375 C 213.289062 -26.902344 206.988281 -41.203125 194.625 -52.835938 C 200.203125 -55.746094 204.808594 -59.867188 208.199219 -65.199219 Z M 189.292969 -72.953125 C 186.386719 -70.046875 182.992188 -68.59375 178.871094 -68.59375 L 39.023438 -68.59375 L 39.023438 -97.917969 L 178.871094 -97.917969 C 182.992188 -97.917969 186.386719 -96.464844 189.292969 -93.558594 C 192.203125 -90.648438 193.65625 -87.253906 193.65625 -83.375 C 193.65625 -79.257812 192.203125 -75.621094 189.292969 -72.953125 Z M 189.292969 -72.953125 "/></g></g></g><g fill="#00ffff" fill-opacity="1"><g transform="translate(2149.293177, 859.679013)"><g><path d="M 203.109375 -107.613281 C 196.324219 -114.402344 188.566406 -117.550781 178.871094 -117.550781 L 53.566406 -117.550781 C 43.871094 -117.550781 36.113281 -114.402344 29.570312 -107.613281 C 22.785156 -100.585938 19.390625 -93.070312 19.390625 -83.863281 L 19.390625 -34.175781 C 19.390625 -24.722656 22.785156 -16.722656 29.570312 -9.9375 C 36.113281 -3.152344 44.113281 0 53.808594 0 L 179.113281 0 C 188.808594 0 196.566406 -3.152344 203.109375 -9.9375 C 209.898438 -16.964844 213.289062 -24.722656 213.289062 -34.175781 L 213.289062 -83.375 C 213.289062 -92.828125 209.898438 -100.828125 203.109375 -107.613281 Z M 189.292969 -23.996094 C 186.386719 -21.085938 182.992188 -19.632812 178.871094 -19.632812 L 50.898438 -19.632812 C 48.234375 -20.117188 45.566406 -21.570312 43.386719 -23.753906 C 40.476562 -26.660156 39.023438 -30.054688 39.023438 -34.175781 L 39.023438 -83.375 C 39.023438 -87.496094 40.476562 -90.890625 43.386719 -93.800781 C 46.292969 -96.707031 49.6875 -98.160156 53.808594 -98.160156 L 178.871094 -98.160156 C 182.992188 -98.160156 186.386719 -96.707031 189.292969 -93.800781 C 192.203125 -90.890625 193.65625 -87.496094 193.65625 -83.375 L 193.65625 -34.175781 C 193.65625 -30.296875 192.203125 -26.902344 189.292969 -23.996094 Z M 189.292969 -23.996094 "/></g></g></g><g fill="#00ffff" fill-opacity="1"><g transform="translate(2381.972565, 859.679013)"><g><path d="M 43.386719 -93.800781 C 45.566406 -95.980469 48.234375 -97.433594 50.898438 -97.917969 L 213.289062 -97.917969 L 213.289062 -117.550781 L 53.808594 -117.550781 C 44.113281 -117.550781 36.113281 -114.402344 29.570312 -107.613281 C 22.785156 -100.585938 19.390625 -92.828125 19.390625 -83.375 L 19.390625 0 L 39.023438 0 L 39.023438 -48.960938 L 192.6875 -48.960938 L 192.6875 -68.59375 L 39.023438 -68.59375 L 39.023438 -83.375 C 39.023438 -87.496094 40.476562 -90.890625 43.386719 -93.800781 Z M 43.386719 -93.800781 "/></g></g></g><g fill="#00ffff" fill-opacity="1"><g transform="translate(2614.651953, 859.679013)"><g><path d="M 39.023438 -19.632812 L 19.390625 -19.632812 L 19.390625 0 L 39.023438 0 Z M 39.023438 -19.632812 "/></g></g></g><g fill="#00ffff" fill-opacity="1"><g transform="translate(2673.064193, 859.679013)"><g/></g></g><g fill="#00ffff" fill-opacity="1"><g transform="translate(2818.488844, 859.679013)"><g><path d="M 203.109375 -58.171875 C 196.566406 -64.957031 188.566406 -68.351562 178.871094 -68.351562 L 53.566406 -68.351562 C 49.445312 -68.351562 46.050781 -69.804688 43.144531 -72.710938 C 40.234375 -75.621094 39.023438 -79.015625 39.023438 -83.132812 C 39.023438 -87.011719 40.234375 -90.40625 43.144531 -93.3125 C 46.050781 -96.222656 49.445312 -97.675781 53.566406 -97.675781 L 208.441406 -97.675781 L 208.441406 -117.308594 L 53.566406 -117.308594 C 44.113281 -117.308594 36.113281 -113.917969 29.328125 -107.128906 C 22.785156 -100.585938 19.390625 -92.34375 19.390625 -83.132812 C 19.390625 -73.683594 22.785156 -65.441406 29.328125 -58.898438 C 36.113281 -52.109375 44.113281 -48.71875 53.566406 -48.71875 L 178.871094 -48.71875 C 182.992188 -48.71875 186.386719 -47.261719 189.292969 -44.597656 C 192.203125 -41.6875 193.65625 -38.054688 193.65625 -34.175781 C 193.65625 -30.054688 192.203125 -26.660156 189.292969 -23.753906 C 186.386719 -20.84375 182.992188 -19.390625 178.871094 -19.390625 L 24.238281 -19.390625 L 24.238281 0 L 178.871094 0 C 188.566406 0 196.566406 -3.152344 203.109375 -9.9375 C 209.898438 -16.722656 213.289062 -24.722656 213.289062 -34.175781 C 213.289062 -43.628906 209.898438 -51.625 203.109375 -58.171875 Z M 203.109375 -58.171875 "/></g></g></g><g fill="#00ffff" fill-opacity="1"><g transform="translate(3051.168232, 859.679013)"><g><path d="M 38.78125 -117.550781 L 19.390625 -117.550781 L 19.390625 0 L 39.023438 0 Z M 38.78125 -117.550781 "/></g></g></g><g fill="#00ffff" fill-opacity="1"><g transform="translate(3109.580472, 859.679013)"><g><path d="M 78.042969 -19.632812 C 67.136719 -19.632812 57.925781 -23.511719 50.414062 -31.023438 C 42.65625 -38.78125 39.023438 -47.988281 39.023438 -58.65625 L 39.023438 -117.550781 L 19.390625 -117.550781 L 19.390625 -58.65625 C 19.390625 -42.65625 25.207031 -28.84375 36.597656 -17.207031 C 47.988281 -5.816406 61.804688 0 78.042969 0 L 213.289062 0 L 213.289062 -19.632812 Z M 78.042969 -19.632812 "/></g></g></g><g fill="#00ffff" fill-opacity="1"><g transform="translate(3342.25995, 859.679013)"><g><path d="M 193.65625 -117.550781 L 193.65625 -19.875 L 50.898438 -19.632812 C 48.234375 -20.117188 45.566406 -21.570312 43.386719 -23.753906 C 40.476562 -26.660156 39.023438 -30.054688 39.023438 -34.175781 L 39.023438 -117.550781 L 19.390625 -117.550781 L 19.390625 -34.175781 C 19.390625 -24.722656 22.785156 -16.722656 29.570312 -9.9375 C 36.113281 -3.152344 44.113281 0 53.808594 0 L 213.289062 0 L 213.289062 -117.550781 Z M 193.65625 -117.550781 "/></g></g></g><g fill="#00ffff" fill-opacity="1"><g transform="translate(3574.939241, 859.679013)"><g><path d="M 38.78125 -117.550781 L 19.390625 -117.550781 L 19.390625 0 L 39.023438 0 Z M 38.78125 -117.550781 "/></g></g></g><g fill="#00ffff" fill-opacity="1"><g transform="translate(3633.351388, 859.679013)"><g><path d="M 203.109375 -107.613281 C 196.324219 -114.402344 188.566406 -117.550781 178.871094 -117.550781 L 53.566406 -117.550781 C 43.871094 -117.550781 36.113281 -114.402344 29.570312 -107.613281 C 22.785156 -100.585938 19.390625 -93.070312 19.390625 -83.863281 L 19.390625 -34.175781 C 19.390625 -24.722656 22.785156 -16.722656 29.570312 -9.9375 C 36.113281 -3.152344 44.113281 0 53.808594 0 L 179.113281 0 C 188.808594 0 196.566406 -3.152344 203.109375 -9.9375 C 209.898438 -16.964844 213.289062 -24.722656 213.289062 -34.175781 L 213.289062 -83.375 C 213.289062 -92.828125 209.898438 -100.828125 203.109375 -107.613281 Z M 189.292969 -23.996094 C 186.386719 -21.085938 182.992188 -19.632812 178.871094 -19.632812 L 50.898438 -19.632812 C 48.234375 -20.117188 45.566406 -21.570312 43.386719 -23.753906 C 40.476562 -26.660156 39.023438 -30.054688 39.023438 -34.175781 L 39.023438 -83.375 C 39.023438 -87.496094 40.476562 -90.890625 43.386719 -93.800781 C 46.292969 -96.707031 49.6875 -98.160156 53.808594 -98.160156 L 178.871094 -98.160156 C 182.992188 -98.160156 186.386719 -96.707031 189.292969 -93.800781 C 192.203125 -90.890625 193.65625 -87.496094 193.65625 -83.375 L 193.65625 -34.175781 C 193.65625 -30.296875 192.203125 -26.902344 189.292969 -23.996094 Z M 189.292969 -23.996094 "/></g></g></g><g fill="#00ffff" fill-opacity="1"><g transform="translate(3866.030679, 859.679013)"><g/></g></g><g fill="#00ffff" fill-opacity="1"><g transform="translate(4011.45524, 859.679013)"><g><path d="M 213.289062 -68.59375 L 78.042969 -68.59375 L 78.042969 -48.960938 L 193.65625 -48.960938 L 193.65625 -34.175781 C 193.65625 -30.296875 192.203125 -26.902344 189.292969 -23.996094 C 186.386719 -21.085938 182.992188 -19.632812 178.871094 -19.632812 L 50.898438 -19.632812 C 48.234375 -20.117188 45.566406 -21.570312 43.386719 -23.753906 C 40.476562 -26.660156 39.023438 -30.054688 39.023438 -34.175781 L 39.023438 -83.375 C 39.023438 -87.496094 40.476562 -90.890625 43.386719 -93.800781 C 46.292969 -96.707031 49.6875 -98.160156 53.808594 -98.160156 L 178.871094 -98.160156 C 182.992188 -98.160156 186.386719 -96.707031 189.292969 -93.800781 C 192.203125 -90.890625 193.65625 -87.496094 193.65625 -83.375 L 213.289062 -83.375 C 213.289062 -92.828125 209.898438 -100.828125 203.109375 -107.613281 C 196.324219 -114.402344 188.566406 -117.550781 178.871094 -117.550781 L 53.566406 -117.550781 C 43.871094 -117.550781 36.113281 -114.402344 29.570312 -107.613281 C 22.785156 -100.585938 19.390625 -93.070312 19.390625 -83.863281 L 19.390625 -34.175781 C 19.390625 -24.722656 22.785156 -16.722656 29.570312 -9.9375 C 36.113281 -3.152344 44.113281 0 53.808594 0 L 179.113281 0 C 188.808594 0 196.566406 -3.152344 203.109375 -9.9375 C 209.898438 -16.964844 213.289062 -24.722656 213.289062 -34.175781 Z M 213.289062 -68.59375 "/></g></g></g><g fill="#00ffff" fill-opacity="1"><g transform="translate(4244.134718, 859.679013)"><g><path d="M 38.78125 -117.550781 L 19.390625 -117.550781 L 19.390625 0 L 39.023438 0 Z M 38.78125 -117.550781 "/></g></g></g><g fill="#00ffff" fill-opacity="1"><g transform="translate(4302.546865, 859.679013)"><g><path d="M 203.109375 -107.613281 C 196.566406 -114.402344 188.808594 -117.550781 179.113281 -117.550781 L 53.808594 -117.550781 C 44.113281 -117.550781 36.113281 -114.402344 29.570312 -107.613281 C 22.785156 -100.585938 19.390625 -92.828125 19.390625 -83.375 L 19.390625 0 L 39.023438 0 L 39.023438 -48.960938 L 193.65625 -48.960938 L 193.65625 0 L 213.289062 0 L 213.289062 -83.375 C 213.289062 -92.828125 209.898438 -100.585938 203.109375 -107.613281 Z M 193.65625 -68.59375 L 39.023438 -68.59375 L 39.023438 -83.375 C 39.023438 -87.496094 40.476562 -90.890625 43.386719 -93.800781 C 45.566406 -95.980469 48.234375 -97.433594 50.898438 -97.917969 L 178.871094 -97.917969 C 182.992188 -97.917969 186.386719 -96.464844 189.292969 -93.558594 C 192.203125 -90.648438 193.65625 -87.253906 193.65625 -83.375 Z M 193.65625 -68.59375 "/></g></g></g><g fill="#00ffff" fill-opacity="1"><g transform="translate(4535.226156, 859.679013)"><g><path d="M 193.65625 -117.550781 L 193.65625 -19.875 L 50.898438 -19.632812 C 48.234375 -20.117188 45.566406 -21.570312 43.386719 -23.753906 C 40.476562 -26.660156 39.023438 -30.054688 39.023438 -34.175781 L 39.023438 -117.550781 L 19.390625 -117.550781 L 19.390625 -34.175781 C 19.390625 -24.722656 22.785156 -16.722656 29.570312 -9.9375 C 36.113281 -3.152344 44.113281 0 53.808594 0 L 213.289062 0 L 213.289062 -117.550781 Z M 193.65625 -117.550781 "/></g></g></g><g fill="#00ffff" fill-opacity="1"><g transform="translate(4767.905447, 859.679013)"><g><path d="M 203.109375 -107.613281 C 196.566406 -114.402344 188.808594 -117.550781 179.113281 -117.550781 L 53.808594 -117.550781 C 44.113281 -117.550781 36.113281 -114.402344 29.570312 -107.613281 C 22.785156 -100.585938 19.390625 -92.828125 19.390625 -83.375 L 19.390625 0 L 39.023438 0 L 39.023438 -48.960938 L 193.65625 -48.960938 L 193.65625 0 L 213.289062 0 L 213.289062 -83.375 C 213.289062 -92.828125 209.898438 -100.585938 203.109375 -107.613281 Z M 193.65625 -68.59375 L 39.023438 -68.59375 L 39.023438 -83.375 C 39.023438 -87.496094 40.476562 -90.890625 43.386719 -93.800781 C 45.566406 -95.980469 48.234375 -97.433594 50.898438 -97.917969 L 178.871094 -97.917969 C 182.992188 -97.917969 186.386719 -96.464844 189.292969 -93.558594 C 192.203125 -90.648438 193.65625 -87.253906 193.65625 -83.375 Z M 193.65625 -68.59375 "/></g></g></g><g fill="#00ffff" fill-opacity="1"><g transform="translate(5000.584738, 859.679013)"><g><path d="M 208.199219 -65.199219 C 211.59375 -70.773438 213.289062 -76.589844 213.289062 -83.375 C 213.289062 -92.585938 209.898438 -100.585938 203.109375 -107.371094 C 196.566406 -114.160156 188.566406 -117.550781 178.871094 -117.550781 L 19.390625 -117.550781 L 19.390625 0 L 39.023438 0 L 39.023438 -48.960938 L 154.636719 -48.960938 C 165.300781 -48.960938 174.511719 -45.082031 182.265625 -37.566406 C 189.78125 -29.8125 193.65625 -20.601562 193.65625 -9.9375 L 193.65625 0 L 213.289062 0 L 213.289062 -9.9375 C 213.289062 -26.902344 206.988281 -41.203125 194.625 -52.835938 C 200.203125 -55.746094 204.808594 -59.867188 208.199219 -65.199219 Z M 189.292969 -72.953125 C 186.386719 -70.046875 182.992188 -68.59375 178.871094 -68.59375 L 39.023438 -68.59375 L 39.023438 -97.917969 L 178.871094 -97.917969 C 182.992188 -97.917969 186.386719 -96.464844 189.292969 -93.558594 C 192.203125 -90.648438 193.65625 -87.253906 193.65625 -83.375 C 193.65625 -79.257812 192.203125 -75.621094 189.292969 -72.953125 Z M 189.292969 -72.953125 "/></g></g></g><g fill="#00ffff" fill-opacity="1"><g transform="translate(5233.264029, 859.679013)"><g><path d="M 203.109375 -107.613281 C 196.324219 -114.402344 188.566406 -117.550781 178.871094 -117.550781 L 53.566406 -117.550781 C 43.871094 -117.550781 36.113281 -114.402344 29.570312 -107.613281 C 22.785156 -100.585938 19.390625 -93.070312 19.390625 -83.863281 L 19.390625 -34.175781 C 19.390625 -24.722656 22.785156 -16.722656 29.570312 -9.9375 C 36.113281 -3.152344 44.113281 0 53.808594 0 L 179.113281 0 C 188.808594 0 196.566406 -3.152344 203.109375 -9.9375 C 209.898438 -16.964844 213.289062 -24.722656 213.289062 -34.175781 L 213.289062 -83.375 C 213.289062 -92.828125 209.898438 -100.828125 203.109375 -107.613281 Z M 189.292969 -23.996094 C 186.386719 -21.085938 182.992188 -19.632812 178.871094 -19.632812 L 50.898438 -19.632812 C 48.234375 -20.117188 45.566406 -21.570312 43.386719 -23.753906 C 40.476562 -26.660156 39.023438 -30.054688 39.023438 -34.175781 L 39.023438 -83.375 C 39.023438 -87.496094 40.476562 -90.890625 43.386719 -93.800781 C 46.292969 -96.707031 49.6875 -98.160156 53.808594 -98.160156 L 178.871094 -98.160156 C 182.992188 -98.160156 186.386719 -96.707031 189.292969 -93.800781 C 192.203125 -90.890625 193.65625 -87.496094 193.65625 -83.375 L 193.65625 -34.175781 C 193.65625 -30.296875 192.203125 -26.902344 189.292969 -23.996094 Z M 189.292969 -23.996094 "/></g></g></g><g fill="#00ffff" fill-opacity="1"><g transform="translate(5465.94332, 859.679013)"><g><path d="M 213.289062 -117.550781 L 213.289062 -97.917969 L 126.519531 -97.917969 L 126.519531 0 L 106.886719 0 L 106.886719 -97.917969 L 19.390625 -97.917969 L 19.390625 -117.550781 Z M 213.289062 -117.550781 "/></g></g></g><g fill="#00ffff" fill-opacity="1"><g transform="translate(5698.622611, 859.679013)"><g><path d="M 203.109375 -107.613281 C 196.324219 -114.402344 188.566406 -117.550781 178.871094 -117.550781 L 53.566406 -117.550781 C 43.871094 -117.550781 36.113281 -114.402344 29.570312 -107.613281 C 22.785156 -100.585938 19.390625 -93.070312 19.390625 -83.863281 L 19.390625 -34.175781 C 19.390625 -24.722656 22.785156 -16.722656 29.570312 -9.9375 C 36.113281 -3.152344 44.113281 0 53.808594 0 L 179.113281 0 C 188.808594 0 196.566406 -3.152344 203.109375 -9.9375 C 209.898438 -16.964844 213.289062 -24.722656 213.289062 -34.175781 L 213.289062 -83.375 C 213.289062 -92.828125 209.898438 -100.828125 203.109375 -107.613281 Z M 189.292969 -23.996094 C 186.386719 -21.085938 182.992188 -19.632812 178.871094 -19.632812 L 50.898438 -19.632812 C 48.234375 -20.117188 45.566406 -21.570312 43.386719 -23.753906 C 40.476562 -26.660156 39.023438 -30.054688 39.023438 -34.175781 L 39.023438 -83.375 C 39.023438 -87.496094 40.476562 -90.890625 43.386719 -93.800781 C 46.292969 -96.707031 49.6875 -98.160156 53.808594 -98.160156 L 178.871094 -98.160156 C 182.992188 -98.160156 186.386719 -96.707031 189.292969 -93.800781 C 192.203125 -90.890625 193.65625 -87.496094 193.65625 -83.375 L 193.65625 -34.175781 C 193.65625 -30.296875 192.203125 -26.902344 189.292969 -23.996094 Z M 189.292969 -23.996094 "/></g></g></g><g fill="#001012" fill-opacity="1"><g transform="translate(1670.171933, 863.886647)"><g><path d="M 203.109375 -107.371094 C 196.566406 -114.160156 188.566406 -117.550781 178.871094 -117.550781 L 19.390625 -117.550781 L 19.390625 0 L 39.023438 0 L 39.023438 -48.960938 L 178.871094 -48.960938 C 188.566406 -48.960938 196.566406 -52.351562 203.109375 -59.140625 C 209.898438 -65.683594 213.289062 -73.683594 213.289062 -83.375 C 213.289062 -92.585938 209.898438 -100.585938 203.109375 -107.371094 Z M 189.292969 -72.953125 C 186.386719 -70.046875 182.992188 -68.59375 178.871094 -68.59375 L 39.023438 -68.59375 L 39.023438 -97.917969 L 178.871094 -97.917969 C 182.992188 -97.917969 186.386719 -96.464844 189.292969 -93.558594 C 192.203125 -90.648438 193.65625 -87.253906 193.65625 -83.375 C 193.65625 -79.257812 192.203125 -75.621094 189.292969 -72.953125 Z M 189.292969 -72.953125 "/></g></g></g><g fill="#001012" fill-opacity="1"><g transform="translate(1902.851322, 863.886647)"><g><path d="M 208.199219 -65.199219 C 211.59375 -70.773438 213.289062 -76.589844 213.289062 -83.375 C 213.289062 -92.585938 209.898438 -100.585938 203.109375 -107.371094 C 196.566406 -114.160156 188.566406 -117.550781 178.871094 -117.550781 L 19.390625 -117.550781 L 19.390625 0 L 39.023438 0 L 39.023438 -48.960938 L 154.636719 -48.960938 C 165.300781 -48.960938 174.511719 -45.082031 182.265625 -37.566406 C 189.78125 -29.8125 193.65625 -20.601562 193.65625 -9.9375 L 193.65625 0 L 213.289062 0 L 213.289062 -9.9375 C 213.289062 -26.902344 206.988281 -41.203125 194.625 -52.835938 C 200.203125 -55.746094 204.808594 -59.867188 208.199219 -65.199219 Z M 189.292969 -72.953125 C 186.386719 -70.046875 182.992188 -68.59375 178.871094 -68.59375 L 39.023438 -68.59375 L 39.023438 -97.917969 L 178.871094 -97.917969 C 182.992188 -97.917969 186.386719 -96.464844 189.292969 -93.558594 C 192.203125 -90.648438 193.65625 -87.253906 193.65625 -83.375 C 193.65625 -79.257812 192.203125 -75.621094 189.292969 -72.953125 Z M 189.292969 -72.953125 "/></g></g></g><g fill="#001012" fill-opacity="1"><g transform="translate(2135.53071, 863.886647)"><g><path d="M 203.109375 -107.613281 C 196.324219 -114.402344 188.566406 -117.550781 178.871094 -117.550781 L 53.566406 -117.550781 C 43.871094 -117.550781 36.113281 -114.402344 29.570312 -107.613281 C 22.785156 -100.585938 19.390625 -93.070312 19.390625 -83.863281 L 19.390625 -34.175781 C 19.390625 -24.722656 22.785156 -16.722656 29.570312 -9.9375 C 36.113281 -3.152344 44.113281 0 53.808594 0 L 179.113281 0 C 188.808594 0 196.566406 -3.152344 203.109375 -9.9375 C 209.898438 -16.964844 213.289062 -24.722656 213.289062 -34.175781 L 213.289062 -83.375 C 213.289062 -92.828125 209.898438 -100.828125 203.109375 -107.613281 Z M 189.292969 -23.996094 C 186.386719 -21.085938 182.992188 -19.632812 178.871094 -19.632812 L 50.898438 -19.632812 C 48.234375 -20.117188 45.566406 -21.570312 43.386719 -23.753906 C 40.476562 -26.660156 39.023438 -30.054688 39.023438 -34.175781 L 39.023438 -83.375 C 39.023438 -87.496094 40.476562 -90.890625 43.386719 -93.800781 C 46.292969 -96.707031 49.6875 -98.160156 53.808594 -98.160156 L 178.871094 -98.160156 C 182.992188 -98.160156 186.386719 -96.707031 189.292969 -93.800781 C 192.203125 -90.890625 193.65625 -87.496094 193.65625 -83.375 L 193.65625 -34.175781 C 193.65625 -30.296875 192.203125 -26.902344 189.292969 -23.996094 Z M 189.292969 -23.996094 "/></g></g></g><g fill="#001012" fill-opacity="1"><g transform="translate(2368.210098, 863.886647)"><g><path d="M 43.386719 -93.800781 C 45.566406 -95.980469 48.234375 -97.433594 50.898438 -97.917969 L 213.289062 -97.917969 L 213.289062 -117.550781 L 53.808594 -117.550781 C 44.113281 -117.550781 36.113281 -114.402344 29.570312 -107.613281 C 22.785156 -100.585938 19.390625 -92.828125 19.390625 -83.375 L 19.390625 0 L 39.023438 0 L 39.023438 -48.960938 L 192.6875 -48.960938 L 192.6875 -68.59375 L 39.023438 -68.59375 L 39.023438 -83.375 C 39.023438 -87.496094 40.476562 -90.890625 43.386719 -93.800781 Z M 43.386719 -93.800781 "/></g></g></g><g fill="#001012" fill-opacity="1"><g transform="translate(2600.889487, 863.886647)"><g><path d="M 39.023438 -19.632812 L 19.390625 -19.632812 L 19.390625 0 L 39.023438 0 Z M 39.023438 -19.632812 "/></g></g></g><g fill="#001012" fill-opacity="1"><g transform="translate(2659.301726, 863.886647)"><g/></g></g><g fill="#001012" fill-opacity="1"><g transform="translate(2804.726377, 863.886647)"><g><path d="M 203.109375 -58.171875 C 196.566406 -64.957031 188.566406 -68.351562 178.871094 -68.351562 L 53.566406 -68.351562 C 49.445312 -68.351562 46.050781 -69.804688 43.144531 -72.710938 C 40.234375 -75.621094 39.023438 -79.015625 39.023438 -83.132812 C 39.023438 -87.011719 40.234375 -90.40625 43.144531 -93.3125 C 46.050781 -96.222656 49.445312 -97.675781 53.566406 -97.675781 L 208.441406 -97.675781 L 208.441406 -117.308594 L 53.566406 -117.308594 C 44.113281 -117.308594 36.113281 -113.917969 29.328125 -107.128906 C 22.785156 -100.585938 19.390625 -92.34375 19.390625 -83.132812 C 19.390625 -73.683594 22.785156 -65.441406 29.328125 -58.898438 C 36.113281 -52.109375 44.113281 -48.71875 53.566406 -48.71875 L 178.871094 -48.71875 C 182.992188 -48.71875 186.386719 -47.261719 189.292969 -44.597656 C 192.203125 -41.6875 193.65625 -38.054688 193.65625 -34.175781 C 193.65625 -30.054688 192.203125 -26.660156 189.292969 -23.753906 C 186.386719 -20.84375 182.992188 -19.390625 178.871094 -19.390625 L 24.238281 -19.390625 L 24.238281 0 L 178.871094 0 C 188.566406 0 196.566406 -3.152344 203.109375 -9.9375 C 209.898438 -16.722656 213.289062 -24.722656 213.289062 -34.175781 C 213.289062 -43.628906 209.898438 -51.625 203.109375 -58.171875 Z M 203.109375 -58.171875 "/></g></g></g><g fill="#001012" fill-opacity="1"><g transform="translate(3037.405766, 863.886647)"><g><path d="M 38.78125 -117.550781 L 19.390625 -117.550781 L 19.390625 0 L 39.023438 0 Z M 38.78125 -117.550781 "/></g></g></g><g fill="#001012" fill-opacity="1"><g transform="translate(3095.818005, 863.886647)"><g><path d="M 78.042969 -19.632812 C 67.136719 -19.632812 57.925781 -23.511719 50.414062 -31.023438 C 42.65625 -38.78125 39.023438 -47.988281 39.023438 -58.65625 L 39.023438 -117.550781 L 19.390625 -117.550781 L 19.390625 -58.65625 C 19.390625 -42.65625 25.207031 -28.84375 36.597656 -17.207031 C 47.988281 -5.816406 61.804688 0 78.042969 0 L 213.289062 0 L 213.289062 -19.632812 Z M 78.042969 -19.632812 "/></g></g></g><g fill="#001012" fill-opacity="1"><g transform="translate(3328.497483, 863.886647)"><g><path d="M 193.65625 -117.550781 L 193.65625 -19.875 L 50.898438 -19.632812 C 48.234375 -20.117188 45.566406 -21.570312 43.386719 -23.753906 C 40.476562 -26.660156 39.023438 -30.054688 39.023438 -34.175781 L 39.023438 -117.550781 L 19.390625 -117.550781 L 19.390625 -34.175781 C 19.390625 -24.722656 22.785156 -16.722656 29.570312 -9.9375 C 36.113281 -3.152344 44.113281 0 53.808594 0 L 213.289062 0 L 213.289062 -117.550781 Z M 193.65625 -117.550781 "/></g></g></g><g fill="#001012" fill-opacity="1"><g transform="translate(3561.176774, 863.886647)"><g><path d="M 38.78125 -117.550781 L 19.390625 -117.550781 L 19.390625 0 L 39.023438 0 Z M 38.78125 -117.550781 "/></g></g></g><g fill="#001012" fill-opacity="1"><g transform="translate(3619.588921, 863.886647)"><g><path d="M 203.109375 -107.613281 C 196.324219 -114.402344 188.566406 -117.550781 178.871094 -117.550781 L 53.566406 -117.550781 C 43.871094 -117.550781 36.113281 -114.402344 29.570312 -107.613281 C 22.785156 -100.585938 19.390625 -93.070312 19.390625 -83.863281 L 19.390625 -34.175781 C 19.390625 -24.722656 22.785156 -16.722656 29.570312 -9.9375 C 36.113281 -3.152344 44.113281 0 53.808594 0 L 179.113281 0 C 188.808594 0 196.566406 -3.152344 203.109375 -9.9375 C 209.898438 -16.964844 213.289062 -24.722656 213.289062 -34.175781 L 213.289062 -83.375 C 213.289062 -92.828125 209.898438 -100.828125 203.109375 -107.613281 Z M 189.292969 -23.996094 C 186.386719 -21.085938 182.992188 -19.632812 178.871094 -19.632812 L 50.898438 -19.632812 C 48.234375 -20.117188 45.566406 -21.570312 43.386719 -23.753906 C 40.476562 -26.660156 39.023438 -30.054688 39.023438 -34.175781 L 39.023438 -83.375 C 39.023438 -87.496094 40.476562 -90.890625 43.386719 -93.800781 C 46.292969 -96.707031 49.6875 -98.160156 53.808594 -98.160156 L 178.871094 -98.160156 C 182.992188 -98.160156 186.386719 -96.707031 189.292969 -93.800781 C 192.203125 -90.890625 193.65625 -87.496094 193.65625 -83.375 L 193.65625 -34.175781 C 193.65625 -30.296875 192.203125 -26.902344 189.292969 -23.996094 Z M 189.292969 -23.996094 "/></g></g></g><g fill="#001012" fill-opacity="1"><g transform="translate(3852.268212, 863.886647)"><g/></g></g><g fill="#001012" fill-opacity="1"><g transform="translate(3997.692773, 863.886647)"><g><path d="M 213.289062 -68.59375 L 78.042969 -68.59375 L 78.042969 -48.960938 L 193.65625 -48.960938 L 193.65625 -34.175781 C 193.65625 -30.296875 192.203125 -26.902344 189.292969 -23.996094 C 186.386719 -21.085938 182.992188 -19.632812 178.871094 -19.632812 L 50.898438 -19.632812 C 48.234375 -20.117188 45.566406 -21.570312 43.386719 -23.753906 C 40.476562 -26.660156 39.023438 -30.054688 39.023438 -34.175781 L 39.023438 -83.375 C 39.023438 -87.496094 40.476562 -90.890625 43.386719 -93.800781 C 46.292969 -96.707031 49.6875 -98.160156 53.808594 -98.160156 L 178.871094 -98.160156 C 182.992188 -98.160156 186.386719 -96.707031 189.292969 -93.800781 C 192.203125 -90.890625 193.65625 -87.496094 193.65625 -83.375 L 213.289062 -83.375 C 213.289062 -92.828125 209.898438 -100.828125 203.109375 -107.613281 C 196.324219 -114.402344 188.566406 -117.550781 178.871094 -117.550781 L 53.566406 -117.550781 C 43.871094 -117.550781 36.113281 -114.402344 29.570312 -107.613281 C 22.785156 -100.585938 19.390625 -93.070312 19.390625 -83.863281 L 19.390625 -34.175781 C 19.390625 -24.722656 22.785156 -16.722656 29.570312 -9.9375 C 36.113281 -3.152344 44.113281 0 53.808594 0 L 179.113281 0 C 188.808594 0 196.566406 -3.152344 203.109375 -9.9375 C 209.898438 -16.964844 213.289062 -24.722656 213.289062 -34.175781 Z M 213.289062 -68.59375 "/></g></g></g><g fill="#001012" fill-opacity="1"><g transform="translate(4230.372252, 863.886647)"><g><path d="M 38.78125 -117.550781 L 19.390625 -117.550781 L 19.390625 0 L 39.023438 0 Z M 38.78125 -117.550781 "/></g></g></g><g fill="#001012" fill-opacity="1"><g transform="translate(4288.784399, 863.886647)"><g><path d="M 203.109375 -107.613281 C 196.566406 -114.402344 188.808594 -117.550781 179.113281 -117.550781 L 53.808594 -117.550781 C 44.113281 -117.550781 36.113281 -114.402344 29.570312 -107.613281 C 22.785156 -100.585938 19.390625 -92.828125 19.390625 -83.375 L 19.390625 0 L 39.023438 0 L 39.023438 -48.960938 L 193.65625 -48.960938 L 193.65625 0 L 213.289062 0 L 213.289062 -83.375 C 213.289062 -92.828125 209.898438 -100.585938 203.109375 -107.613281 Z M 193.65625 -68.59375 L 39.023438 -68.59375 L 39.023438 -83.375 C 39.023438 -87.496094 40.476562 -90.890625 43.386719 -93.800781 C 45.566406 -95.980469 48.234375 -97.433594 50.898438 -97.917969 L 178.871094 -97.917969 C 182.992188 -97.917969 186.386719 -96.464844 189.292969 -93.558594 C 192.203125 -90.648438 193.65625 -87.253906 193.65625 -83.375 Z M 193.65625 -68.59375 "/></g></g></g><g fill="#001012" fill-opacity="1"><g transform="translate(4521.463689, 863.886647)"><g><path d="M 193.65625 -117.550781 L 193.65625 -19.875 L 50.898438 -19.632812 C 48.234375 -20.117188 45.566406 -21.570312 43.386719 -23.753906 C 40.476562 -26.660156 39.023438 -30.054688 39.023438 -34.175781 L 39.023438 -117.550781 L 19.390625 -117.550781 L 19.390625 -34.175781 C 19.390625 -24.722656 22.785156 -16.722656 29.570312 -9.9375 C 36.113281 -3.152344 44.113281 0 53.808594 0 L 213.289062 0 L 213.289062 -117.550781 Z M 193.65625 -117.550781 "/></g></g></g><g fill="#001012" fill-opacity="1"><g transform="translate(4754.14298, 863.886647)"><g><path d="M 203.109375 -107.613281 C 196.566406 -114.402344 188.808594 -117.550781 179.113281 -117.550781 L 53.808594 -117.550781 C 44.113281 -117.550781 36.113281 -114.402344 29.570312 -107.613281 C 22.785156 -100.585938 19.390625 -92.828125 19.390625 -83.375 L 19.390625 0 L 39.023438 0 L 39.023438 -48.960938 L 193.65625 -48.960938 L 193.65625 0 L 213.289062 0 L 213.289062 -83.375 C 213.289062 -92.828125 209.898438 -100.585938 203.109375 -107.613281 Z M 193.65625 -68.59375 L 39.023438 -68.59375 L 39.023438 -83.375 C 39.023438 -87.496094 40.476562 -90.890625 43.386719 -93.800781 C 45.566406 -95.980469 48.234375 -97.433594 50.898438 -97.917969 L 178.871094 -97.917969 C 182.992188 -97.917969 186.386719 -96.464844 189.292969 -93.558594 C 192.203125 -90.648438 193.65625 -87.253906 193.65625 -83.375 Z M 193.65625 -68.59375 "/></g></g></g><g fill="#001012" fill-opacity="1"><g transform="translate(4986.822271, 863.886647)"><g><path d="M 208.199219 -65.199219 C 211.59375 -70.773438 213.289062 -76.589844 213.289062 -83.375 C 213.289062 -92.585938 209.898438 -100.585938 203.109375 -107.371094 C 196.566406 -114.160156 188.566406 -117.550781 178.871094 -117.550781 L 19.390625 -117.550781 L 19.390625 0 L 39.023438 0 L 39.023438 -48.960938 L 154.636719 -48.960938 C 165.300781 -48.960938 174.511719 -45.082031 182.265625 -37.566406 C 189.78125 -29.8125 193.65625 -20.601562 193.65625 -9.9375 L 193.65625 0 L 213.289062 0 L 213.289062 -9.9375 C 213.289062 -26.902344 206.988281 -41.203125 194.625 -52.835938 C 200.203125 -55.746094 204.808594 -59.867188 208.199219 -65.199219 Z M 189.292969 -72.953125 C 186.386719 -70.046875 182.992188 -68.59375 178.871094 -68.59375 L 39.023438 -68.59375 L 39.023438 -97.917969 L 178.871094 -97.917969 C 182.992188 -97.917969 186.386719 -96.464844 189.292969 -93.558594 C 192.203125 -90.648438 193.65625 -87.253906 193.65625 -83.375 C 193.65625 -79.257812 192.203125 -75.621094 189.292969 -72.953125 Z M 189.292969 -72.953125 "/></g></g></g><g fill="#001012" fill-opacity="1"><g transform="translate(5219.501562, 863.886647)"><g><path d="M 203.109375 -107.613281 C 196.324219 -114.402344 188.566406 -117.550781 178.871094 -117.550781 L 53.566406 -117.550781 C 43.871094 -117.550781 36.113281 -114.402344 29.570312 -107.613281 C 22.785156 -100.585938 19.390625 -93.070312 19.390625 -83.863281 L 19.390625 -34.175781 C 19.390625 -24.722656 22.785156 -16.722656 29.570312 -9.9375 C 36.113281 -3.152344 44.113281 0 53.808594 0 L 179.113281 0 C 188.808594 0 196.566406 -3.152344 203.109375 -9.9375 C 209.898438 -16.964844 213.289062 -24.722656 213.289062 -34.175781 L 213.289062 -83.375 C 213.289062 -92.828125 209.898438 -100.828125 203.109375 -107.613281 Z M 189.292969 -23.996094 C 186.386719 -21.085938 182.992188 -19.632812 178.871094 -19.632812 L 50.898438 -19.632812 C 48.234375 -20.117188 45.566406 -21.570312 43.386719 -23.753906 C 40.476562 -26.660156 39.023438 -30.054688 39.023438 -34.175781 L 39.023438 -83.375 C 39.023438 -87.496094 40.476562 -90.890625 43.386719 -93.800781 C 46.292969 -96.707031 49.6875 -98.160156 53.808594 -98.160156 L 178.871094 -98.160156 C 182.992188 -98.160156 186.386719 -96.707031 189.292969 -93.800781 C 192.203125 -90.890625 193.65625 -87.496094 193.65625 -83.375 L 193.65625 -34.175781 C 193.65625 -30.296875 192.203125 -26.902344 189.292969 -23.996094 Z M 189.292969 -23.996094 "/></g></g></g><g fill="#001012" fill-opacity="1"><g transform="translate(5452.180853, 863.886647)"><g><path d="M 213.289062 -117.550781 L 213.289062 -97.917969 L 126.519531 -97.917969 L 126.519531 0 L 106.886719 0 L 106.886719 -97.917969 L 19.390625 -97.917969 L 19.390625 -117.550781 Z M 213.289062 -117.550781 "/></g></g></g><g fill="#001012" fill-opacity="1"><g transform="translate(5684.860144, 863.886647)"><g><path d="M 203.109375 -107.613281 C 196.324219 -114.402344 188.566406 -117.550781 178.871094 -117.550781 L 53.566406 -117.550781 C 43.871094 -117.550781 36.113281 -114.402344 29.570312 -107.613281 C 22.785156 -100.585938 19.390625 -93.070312 19.390625 -83.863281 L 19.390625 -34.175781 C 19.390625 -24.722656 22.785156 -16.722656 29.570312 -9.9375 C 36.113281 -3.152344 44.113281 0 53.808594 0 L 179.113281 0 C 188.808594 0 196.566406 -3.152344 203.109375 -9.9375 C 209.898438 -16.964844 213.289062 -24.722656 213.289062 -34.175781 L 213.289062 -83.375 C 213.289062 -92.828125 209.898438 -100.828125 203.109375 -107.613281 Z M 189.292969 -23.996094 C 186.386719 -21.085938 182.992188 -19.632812 178.871094 -19.632812 L 50.898438 -19.632812 C 48.234375 -20.117188 45.566406 -21.570312 43.386719 -23.753906 C 40.476562 -26.660156 39.023438 -30.054688 39.023438 -34.175781 L 39.023438 -83.375 C 39.023438 -87.496094 40.476562 -90.890625 43.386719 -93.800781 C 46.292969 -96.707031 49.6875 -98.160156 53.808594 -98.160156 L 178.871094 -98.160156 C 182.992188 -98.160156 186.386719 -96.707031 189.292969 -93.800781 C 192.203125 -90.890625 193.65625 -87.496094 193.65625 -83.375 L 193.65625 -34.175781 C 193.65625 -30.296875 192.203125 -26.902344 189.292969 -23.996094 Z M 189.292969 -23.996094 "/></g></g></g><g fill="#5271ff" fill-opacity="1"><g transform="translate(1637.574911, 1341.010142)"><g><path d="M 27.90625 -258.25 L 118 -258.25 C 153.09375 -258.25 179.144531 -253.035156 196.15625 -242.609375 C 213.175781 -232.191406 221.6875 -215.972656 221.6875 -193.953125 C 221.6875 -179.472656 217.976562 -167.109375 210.5625 -156.859375 C 203.144531 -146.609375 193.367188 -140.015625 181.234375 -137.078125 L 181.234375 -135.3125 C 197.253906 -131.070312 208.851562 -124.003906 216.03125 -114.109375 C 223.21875 -104.222656 226.8125 -91.390625 226.8125 -75.609375 C 226.8125 -52.171875 218.007812 -33.707031 200.40625 -20.21875 C 182.800781 -6.738281 158.804688 0 128.421875 0 L 27.90625 0 Z M 97.6875 -159.15625 L 118.703125 -159.15625 C 128.710938 -159.15625 136.453125 -161.210938 141.921875 -165.328125 C 147.398438 -169.453125 150.140625 -175.578125 150.140625 -183.703125 C 150.140625 -198.191406 139.191406 -205.4375 117.296875 -205.4375 L 97.6875 -205.4375 Z M 97.6875 -108.109375 L 97.6875 -53.875 L 122.234375 -53.875 C 144.023438 -53.875 154.921875 -63.0625 154.921875 -81.4375 C 154.921875 -90.03125 152.003906 -96.625 146.171875 -101.21875 C 140.335938 -105.8125 131.890625 -108.109375 120.828125 -108.109375 Z M 97.6875 -108.109375 "/></g></g><g transform="translate(1881.343496, 1341.010142)"><g><path d="M 27.90625 0 L 27.90625 -258.25 L 97.6875 -258.25 L 97.6875 -56.34375 L 197.140625 -56.34375 L 197.140625 0 Z M 27.90625 0 "/></g></g><g transform="translate(2091.903026, 1341.010142)"><g><path d="M 247.484375 -258.25 L 247.484375 -102.8125 C 247.484375 -69.007812 237.910156 -42.832031 218.765625 -24.28125 C 199.628906 -5.738281 172.046875 3.53125 136.015625 3.53125 C 100.804688 3.53125 73.75 -5.472656 54.84375 -23.484375 C 35.945312 -41.503906 26.5 -67.414062 26.5 -101.21875 L 26.5 -258.25 L 96.625 -258.25 L 96.625 -106.6875 C 96.625 -88.4375 100.035156 -75.1875 106.859375 -66.9375 C 113.691406 -58.695312 123.765625 -54.578125 137.078125 -54.578125 C 151.328125 -54.578125 161.660156 -58.671875 168.078125 -66.859375 C 174.492188 -75.046875 177.703125 -88.441406 177.703125 -107.046875 L 177.703125 -258.25 Z M 247.484375 -258.25 "/></g></g><g transform="translate(2365.701073, 1341.010142)"><g><path d="M 181.234375 0 L 27.90625 0 L 27.90625 -258.25 L 181.234375 -258.25 L 181.234375 -202.25 L 97.6875 -202.25 L 97.6875 -161.625 L 175.046875 -161.625 L 175.046875 -105.625 L 97.6875 -105.625 L 97.6875 -56.875 L 181.234375 -56.875 Z M 181.234375 0 "/></g></g><g transform="translate(2564.24882, 1341.010142)"><g/></g><g transform="translate(2658.223377, 1341.010142)"><g><path d="M 141.84375 0 L 72.078125 0 L 72.078125 -201.203125 L 9.015625 -201.203125 L 9.015625 -258.25 L 204.734375 -258.25 L 204.734375 -201.203125 L 141.84375 -201.203125 Z M 141.84375 0 "/></g></g><g transform="translate(2871.962496, 1341.010142)"><g><path d="M 181.234375 0 L 27.90625 0 L 27.90625 -258.25 L 181.234375 -258.25 L 181.234375 -202.25 L 97.6875 -202.25 L 97.6875 -161.625 L 175.046875 -161.625 L 175.046875 -105.625 L 97.6875 -105.625 L 97.6875 -56.875 L 181.234375 -56.875 Z M 181.234375 0 "/></g></g><g transform="translate(3070.510242, 1341.010142)"><g><path d="M 186.359375 0 L 173.640625 -48.40625 L 89.734375 -48.40625 L 76.65625 0 L 0 0 L 84.265625 -259.3125 L 177.34375 -259.3125 L 262.671875 0 Z M 159.15625 -105.625 L 148.03125 -148.03125 C 145.4375 -157.445312 142.285156 -169.632812 138.578125 -184.59375 C 134.867188 -199.550781 132.425781 -210.265625 131.25 -216.734375 C 130.1875 -210.734375 128.09375 -200.84375 124.96875 -187.0625 C 121.851562 -173.28125 114.9375 -146.132812 104.21875 -105.625 Z M 159.15625 -105.625 "/></g></g><g transform="translate(3333.179724, 1341.010142)"><g><path d="M 140.4375 0 L 87.609375 -186 L 86.03125 -186 C 88.5 -154.320312 89.734375 -129.710938 89.734375 -112.171875 L 89.734375 0 L 27.90625 0 L 27.90625 -258.25 L 120.828125 -258.25 L 174.703125 -74.890625 L 176.109375 -74.890625 L 228.9375 -258.25 L 322.015625 -258.25 L 322.015625 0 L 257.90625 0 L 257.90625 -113.234375 C 257.90625 -119.117188 257.988281 -125.648438 258.15625 -132.828125 C 258.332031 -140.015625 259.128906 -157.625 260.546875 -185.65625 L 258.953125 -185.65625 L 206.84375 0 Z M 140.4375 0 "/></g></g><g transform="translate(3682.934649, 1341.010142)"><g/></g><g transform="translate(3776.909206, 1341.010142)"><g><path d="M 269.5625 -129.484375 C 269.5625 -86.023438 258.898438 -52.988281 237.578125 -30.375 C 216.265625 -7.769531 185.0625 3.53125 143.96875 3.53125 C 103.457031 3.53125 72.394531 -7.832031 50.78125 -30.5625 C 29.175781 -53.289062 18.375 -86.378906 18.375 -129.828125 C 18.375 -172.816406 29.117188 -205.644531 50.609375 -228.3125 C 72.097656 -250.976562 103.332031 -262.3125 144.3125 -262.3125 C 185.414062 -262.3125 216.566406 -251.066406 237.765625 -228.578125 C 258.960938 -206.085938 269.5625 -173.054688 269.5625 -129.484375 Z M 91.859375 -129.484375 C 91.859375 -79.546875 109.226562 -54.578125 143.96875 -54.578125 C 161.625 -54.578125 174.722656 -60.640625 183.265625 -72.765625 C 191.804688 -84.898438 196.078125 -103.804688 196.078125 -129.484375 C 196.078125 -155.273438 191.75 -174.320312 183.09375 -186.625 C 174.4375 -198.925781 161.507812 -205.078125 144.3125 -205.078125 C 109.34375 -205.078125 91.859375 -179.878906 91.859375 -129.484375 Z M 91.859375 -129.484375 "/></g></g><g transform="translate(4065.192052, 1341.010142)"><g><path d="M 215.328125 -176.109375 C 215.328125 -147.253906 206.816406 -124.96875 189.796875 -109.25 C 172.785156 -93.53125 148.617188 -85.671875 117.296875 -85.671875 L 97.6875 -85.671875 L 97.6875 0 L 27.90625 0 L 27.90625 -258.25 L 117.296875 -258.25 C 149.910156 -258.25 174.398438 -251.125 190.765625 -236.875 C 207.140625 -222.625 215.328125 -202.367188 215.328125 -176.109375 Z M 97.6875 -142.546875 L 110.40625 -142.546875 C 120.882812 -142.546875 129.210938 -145.488281 135.390625 -151.375 C 141.578125 -157.269531 144.671875 -165.398438 144.671875 -175.765625 C 144.671875 -193.191406 135.015625 -201.90625 115.703125 -201.90625 L 97.6875 -201.90625 Z M 97.6875 -142.546875 "/></g></g><g transform="translate(4293.769261, 1341.010142)"><g><path d="M 181.234375 0 L 27.90625 0 L 27.90625 -258.25 L 181.234375 -258.25 L 181.234375 -202.25 L 97.6875 -202.25 L 97.6875 -161.625 L 175.046875 -161.625 L 175.046875 -105.625 L 97.6875 -105.625 L 97.6875 -56.875 L 181.234375 -56.875 Z M 181.234375 0 "/></g></g><g transform="translate(4492.317007, 1341.010142)"><g><path d="M 97.6875 -93.96875 L 97.6875 0 L 27.90625 0 L 27.90625 -258.25 L 112.515625 -258.25 C 182.703125 -258.25 217.796875 -232.8125 217.796875 -181.9375 C 217.796875 -152.03125 203.195312 -128.890625 174 -112.515625 L 249.25 0 L 170.109375 0 L 115.34375 -93.96875 Z M 97.6875 -146.4375 L 110.75 -146.4375 C 135.132812 -146.4375 147.328125 -157.210938 147.328125 -178.765625 C 147.328125 -196.546875 135.375 -205.4375 111.46875 -205.4375 L 97.6875 -205.4375 Z M 97.6875 -146.4375 "/></g></g><g transform="translate(4737.145453, 1341.010142)"><g><path d="M 186.359375 0 L 173.640625 -48.40625 L 89.734375 -48.40625 L 76.65625 0 L 0 0 L 84.265625 -259.3125 L 177.34375 -259.3125 L 262.671875 0 Z M 159.15625 -105.625 L 148.03125 -148.03125 C 145.4375 -157.445312 142.285156 -169.632812 138.578125 -184.59375 C 134.867188 -199.550781 132.425781 -210.265625 131.25 -216.734375 C 130.1875 -210.734375 128.09375 -200.84375 124.96875 -187.0625 C 121.851562 -173.28125 114.9375 -146.132812 104.21875 -105.625 Z M 159.15625 -105.625 "/></g></g><g transform="translate(4999.814934, 1341.010142)"><g><path d="M 141.84375 0 L 72.078125 0 L 72.078125 -201.203125 L 9.015625 -201.203125 L 9.015625 -258.25 L 204.734375 -258.25 L 204.734375 -201.203125 L 141.84375 -201.203125 Z M 141.84375 0 "/></g></g><g transform="translate(5213.554053, 1341.010142)"><g><path d="M 27.90625 0 L 27.90625 -258.25 L 98.03125 -258.25 L 98.03125 0 Z M 27.90625 0 "/></g></g><g transform="translate(5339.501154, 1341.010142)"><g><path d="M 269.5625 -129.484375 C 269.5625 -86.023438 258.898438 -52.988281 237.578125 -30.375 C 216.265625 -7.769531 185.0625 3.53125 143.96875 3.53125 C 103.457031 3.53125 72.394531 -7.832031 50.78125 -30.5625 C 29.175781 -53.289062 18.375 -86.378906 18.375 -129.828125 C 18.375 -172.816406 29.117188 -205.644531 50.609375 -228.3125 C 72.097656 -250.976562 103.332031 -262.3125 144.3125 -262.3125 C 185.414062 -262.3125 216.566406 -251.066406 237.765625 -228.578125 C 258.960938 -206.085938 269.5625 -173.054688 269.5625 -129.484375 Z M 91.859375 -129.484375 C 91.859375 -79.546875 109.226562 -54.578125 143.96875 -54.578125 C 161.625 -54.578125 174.722656 -60.640625 183.265625 -72.765625 C 191.804688 -84.898438 196.078125 -103.804688 196.078125 -129.484375 C 196.078125 -155.273438 191.75 -174.320312 183.09375 -186.625 C 174.4375 -198.925781 161.507812 -205.078125 144.3125 -205.078125 C 109.34375 -205.078125 91.859375 -179.878906 91.859375 -129.484375 Z M 91.859375 -129.484375 "/></g></g><g transform="translate(5627.784, 1341.010142)"><g><path d="M 273.796875 0 L 182.296875 0 L 87.96875 -181.9375 L 86.375 -181.9375 C 88.613281 -153.320312 89.734375 -131.476562 89.734375 -116.40625 L 89.734375 0 L 27.90625 0 L 27.90625 -258.25 L 119.0625 -258.25 L 213.03125 -78.78125 L 214.09375 -78.78125 C 212.445312 -104.8125 211.625 -125.710938 211.625 -141.484375 L 211.625 -258.25 L 273.796875 -258.25 Z M 273.796875 0 "/></g></g></g><g fill="#ff1616" fill-opacity="1"><g transform="translate(1637.574911, 1656.61986)"><g><path d="M 71.53125 0 L 20.65625 0 L 20.65625 -191.1875 L 133.65625 -191.1875 L 133.65625 -149.734375 L 71.53125 -149.734375 L 71.53125 -113.25 L 128.8125 -113.25 L 128.8125 -71.796875 L 71.53125 -71.796875 Z M 71.53125 0 "/></g></g><g transform="translate(1781.953878, 1656.61986)"><g><path d="M 199.5625 -95.859375 C 199.5625 -63.691406 191.671875 -39.238281 175.890625 -22.5 C 160.109375 -5.757812 137.003906 2.609375 106.578125 2.609375 C 76.585938 2.609375 53.59375 -5.800781 37.59375 -22.625 C 21.59375 -39.445312 13.59375 -63.945312 13.59375 -96.125 C 13.59375 -127.945312 21.546875 -152.25 37.453125 -169.03125 C 53.367188 -185.8125 76.5 -194.203125 106.84375 -194.203125 C 137.269531 -194.203125 160.328125 -185.875 176.015625 -169.21875 C 191.710938 -152.570312 199.5625 -128.117188 199.5625 -95.859375 Z M 68 -95.859375 C 68 -58.890625 80.859375 -40.40625 106.578125 -40.40625 C 119.660156 -40.40625 129.359375 -44.894531 135.671875 -53.875 C 141.992188 -62.851562 145.15625 -76.847656 145.15625 -95.859375 C 145.15625 -114.953125 141.953125 -129.050781 135.546875 -138.15625 C 129.140625 -147.269531 119.570312 -151.828125 106.84375 -151.828125 C 80.945312 -151.828125 68 -133.171875 68 -95.859375 Z M 68 -95.859375 "/></g></g><g transform="translate(1995.383655, 1656.61986)"><g><path d="M 72.3125 -69.578125 L 72.3125 0 L 20.65625 0 L 20.65625 -191.1875 L 83.296875 -191.1875 C 135.265625 -191.1875 161.25 -172.359375 161.25 -134.703125 C 161.25 -112.554688 150.4375 -95.421875 128.8125 -83.296875 L 184.53125 0 L 125.9375 0 L 85.390625 -69.578125 Z M 72.3125 -108.40625 L 82 -108.40625 C 100.039062 -108.40625 109.0625 -116.382812 109.0625 -132.34375 C 109.0625 -145.507812 100.210938 -152.09375 82.515625 -152.09375 L 72.3125 -152.09375 Z M 72.3125 -108.40625 "/></g></g><g transform="translate(2176.642031, 1656.61986)"><g/></g><g transform="translate(2246.215955, 1656.61986)"><g><path d="M 105.796875 -151.5625 C 93.503906 -151.5625 83.914062 -146.523438 77.03125 -136.453125 C 70.144531 -126.390625 66.703125 -112.507812 66.703125 -94.8125 C 66.703125 -58.019531 80.691406 -39.625 108.671875 -39.625 C 117.128906 -39.625 125.320312 -40.800781 133.25 -43.15625 C 141.1875 -45.507812 149.164062 -48.34375 157.1875 -51.65625 L 157.1875 -7.984375 C 141.238281 -0.921875 123.191406 2.609375 103.046875 2.609375 C 74.191406 2.609375 52.066406 -5.757812 36.671875 -22.5 C 21.285156 -39.238281 13.59375 -63.429688 13.59375 -95.078125 C 13.59375 -114.867188 17.320312 -132.257812 24.78125 -147.25 C 32.238281 -162.25 42.960938 -173.78125 56.953125 -181.84375 C 70.941406 -189.90625 87.398438 -193.9375 106.328125 -193.9375 C 126.984375 -193.9375 146.726562 -189.445312 165.5625 -180.46875 L 149.734375 -139.796875 C 142.671875 -143.109375 135.609375 -145.894531 128.546875 -148.15625 C 121.484375 -150.425781 113.898438 -151.5625 105.796875 -151.5625 Z M 105.796875 -151.5625 "/></g></g><g transform="translate(2420.019982, 1656.61986)"><g><path d="M 88.921875 -120.3125 L 121.875 -191.1875 L 177.859375 -191.1875 L 114.953125 -74.671875 L 114.953125 0 L 62.90625 0 L 62.90625 -73.109375 L 0 -191.1875 L 56.234375 -191.1875 Z M 88.921875 -120.3125 "/></g></g><g transform="translate(2597.87813, 1656.61986)"><g><path d="M 20.65625 -191.1875 L 87.359375 -191.1875 C 113.335938 -191.1875 132.625 -187.328125 145.21875 -179.609375 C 157.820312 -171.898438 164.125 -159.894531 164.125 -143.59375 C 164.125 -132.863281 161.375 -123.707031 155.875 -116.125 C 150.382812 -108.539062 143.148438 -103.660156 134.171875 -101.484375 L 134.171875 -100.171875 C 146.035156 -97.035156 154.625 -91.804688 159.9375 -84.484375 C 165.257812 -77.160156 167.921875 -67.65625 167.921875 -55.96875 C 167.921875 -38.625 161.398438 -24.957031 148.359375 -14.96875 C 135.328125 -4.988281 117.566406 0 95.078125 0 L 20.65625 0 Z M 72.3125 -117.828125 L 87.875 -117.828125 C 95.289062 -117.828125 101.023438 -119.351562 105.078125 -122.40625 C 109.128906 -125.457031 111.15625 -129.988281 111.15625 -136 C 111.15625 -146.726562 103.046875 -152.09375 86.828125 -152.09375 L 72.3125 -152.09375 Z M 72.3125 -80.03125 L 72.3125 -39.890625 L 90.5 -39.890625 C 106.625 -39.890625 114.6875 -46.6875 114.6875 -60.28125 C 114.6875 -66.644531 112.53125 -71.523438 108.21875 -74.921875 C 103.90625 -78.328125 97.648438 -80.03125 89.453125 -80.03125 Z M 72.3125 -80.03125 "/></g></g><g transform="translate(2778.35184, 1656.61986)"><g><path d="M 134.171875 0 L 20.65625 0 L 20.65625 -191.1875 L 134.171875 -191.1875 L 134.171875 -149.734375 L 72.3125 -149.734375 L 72.3125 -119.65625 L 129.59375 -119.65625 L 129.59375 -78.203125 L 72.3125 -78.203125 L 72.3125 -42.109375 L 134.171875 -42.109375 Z M 134.171875 0 "/></g></g><g transform="translate(2925.346369, 1656.61986)"><g><path d="M 72.3125 -69.578125 L 72.3125 0 L 20.65625 0 L 20.65625 -191.1875 L 83.296875 -191.1875 C 135.265625 -191.1875 161.25 -172.359375 161.25 -134.703125 C 161.25 -112.554688 150.4375 -95.421875 128.8125 -83.296875 L 184.53125 0 L 125.9375 0 L 85.390625 -69.578125 Z M 72.3125 -108.40625 L 82 -108.40625 C 100.039062 -108.40625 109.0625 -116.382812 109.0625 -132.34375 C 109.0625 -145.507812 100.210938 -152.09375 82.515625 -152.09375 L 72.3125 -152.09375 Z M 72.3125 -108.40625 "/></g></g><g transform="translate(3106.604745, 1656.61986)"><g/></g><g transform="translate(3176.178668, 1656.61986)"><g><path d="M 182.953125 -99.65625 C 182.953125 -67.738281 174.164062 -43.148438 156.59375 -25.890625 C 139.03125 -8.628906 114.335938 0 82.515625 0 L 20.65625 0 L 20.65625 -191.1875 L 86.828125 -191.1875 C 117.523438 -191.1875 141.21875 -183.335938 157.90625 -167.640625 C 174.601562 -151.953125 182.953125 -129.289062 182.953125 -99.65625 Z M 129.34375 -97.8125 C 129.34375 -115.34375 125.875 -128.332031 118.9375 -136.78125 C 112.007812 -145.238281 101.484375 -149.46875 87.359375 -149.46875 L 72.3125 -149.46875 L 72.3125 -42.375 L 83.828125 -42.375 C 99.515625 -42.375 111.019531 -46.925781 118.34375 -56.03125 C 125.675781 -65.144531 129.34375 -79.070312 129.34375 -97.8125 Z M 129.34375 -97.8125 "/></g></g><g transform="translate(3372.738077, 1656.61986)"><g><path d="M 134.171875 0 L 20.65625 0 L 20.65625 -191.1875 L 134.171875 -191.1875 L 134.171875 -149.734375 L 72.3125 -149.734375 L 72.3125 -119.65625 L 129.59375 -119.65625 L 129.59375 -78.203125 L 72.3125 -78.203125 L 72.3125 -42.109375 L 134.171875 -42.109375 Z M 134.171875 0 "/></g></g><g transform="translate(3519.732606, 1656.61986)"><g><path d="M 71.53125 0 L 20.65625 0 L 20.65625 -191.1875 L 133.65625 -191.1875 L 133.65625 -149.734375 L 71.53125 -149.734375 L 71.53125 -113.25 L 128.8125 -113.25 L 128.8125 -71.796875 L 71.53125 -71.796875 Z M 71.53125 0 "/></g></g><g transform="translate(3664.111573, 1656.61986)"><g><path d="M 134.171875 0 L 20.65625 0 L 20.65625 -191.1875 L 134.171875 -191.1875 L 134.171875 -149.734375 L 72.3125 -149.734375 L 72.3125 -119.65625 L 129.59375 -119.65625 L 129.59375 -78.203125 L 72.3125 -78.203125 L 72.3125 -42.109375 L 134.171875 -42.109375 Z M 134.171875 0 "/></g></g><g transform="translate(3811.106102, 1656.61986)"><g><path d="M 202.703125 0 L 134.953125 0 L 65.125 -134.703125 L 63.953125 -134.703125 C 65.609375 -113.515625 66.4375 -97.34375 66.4375 -86.1875 L 66.4375 0 L 20.65625 0 L 20.65625 -191.1875 L 88.140625 -191.1875 L 157.71875 -58.328125 L 158.5 -58.328125 C 157.28125 -77.597656 156.671875 -93.070312 156.671875 -104.75 L 156.671875 -191.1875 L 202.703125 -191.1875 Z M 202.703125 0 "/></g></g><g transform="translate(4034.475012, 1656.61986)"><g><path d="M 145.6875 -58.0625 C 145.6875 -46.207031 142.675781 -35.679688 136.65625 -26.484375 C 130.644531 -17.285156 121.972656 -10.132812 110.640625 -5.03125 C 99.304688 0.0625 86.007812 2.609375 70.75 2.609375 C 58.019531 2.609375 47.335938 1.71875 38.703125 -0.0625 C 30.078125 -1.851562 21.097656 -4.972656 11.765625 -9.421875 L 11.765625 -55.453125 C 21.617188 -50.390625 31.863281 -46.441406 42.5 -43.609375 C 53.132812 -40.773438 62.898438 -39.359375 71.796875 -39.359375 C 79.460938 -39.359375 85.082031 -40.6875 88.65625 -43.34375 C 92.238281 -46.007812 94.03125 -49.4375 94.03125 -53.625 C 94.03125 -56.238281 93.3125 -58.523438 91.875 -60.484375 C 90.4375 -62.441406 88.125 -64.421875 84.9375 -66.421875 C 81.757812 -68.429688 73.28125 -72.535156 59.5 -78.734375 C 47.03125 -84.398438 37.675781 -89.890625 31.4375 -95.203125 C 25.207031 -100.523438 20.585938 -106.628906 17.578125 -113.515625 C 14.578125 -120.398438 13.078125 -128.550781 13.078125 -137.96875 C 13.078125 -155.582031 19.484375 -169.3125 32.296875 -179.15625 C 45.117188 -189.007812 62.734375 -193.9375 85.140625 -193.9375 C 104.929688 -193.9375 125.113281 -189.359375 145.6875 -180.203125 L 129.859375 -140.328125 C 111.984375 -148.515625 96.550781 -152.609375 83.5625 -152.609375 C 76.851562 -152.609375 71.972656 -151.429688 68.921875 -149.078125 C 65.867188 -146.722656 64.34375 -143.804688 64.34375 -140.328125 C 64.34375 -136.578125 66.28125 -133.21875 70.15625 -130.25 C 74.039062 -127.289062 84.570312 -121.882812 101.75 -114.03125 C 118.21875 -106.625 129.65625 -98.671875 136.0625 -90.171875 C 142.476562 -81.671875 145.6875 -70.96875 145.6875 -58.0625 Z M 145.6875 -58.0625 "/></g></g><g transform="translate(4189.054668, 1656.61986)"><g><path d="M 134.171875 0 L 20.65625 0 L 20.65625 -191.1875 L 134.171875 -191.1875 L 134.171875 -149.734375 L 72.3125 -149.734375 L 72.3125 -119.65625 L 129.59375 -119.65625 L 129.59375 -78.203125 L 72.3125 -78.203125 L 72.3125 -42.109375 L 134.171875 -42.109375 Z M 134.171875 0 "/></g></g></g></svg>